<svg id="Layer_1" data-name="Layer 1" xmlns="http://www.w3.org/2000/svg" viewBox="0 0 96 70"><defs><style>.cls-1{fill:none;stroke:#231f20;stroke-miterlimit:10;stroke-width:0.5px;}.cls-2{fill:#e4e5e9;}.cls-3{fill:#55839f;}.cls-4{fill:#003057;}.cls-5{fill:#0a3254;}</style></defs><title>logo-csc-bar</title><line class="cls-1" x1="85.11" y1="13.08" x2="85.11" y2="62.31"/><path class="cls-2" d="M53.94,37.29c0,.14,0,.28,0,.41l.06,0c0-.14,0-.28,0-.41Z"/><path class="cls-3" d="M39.69,68.59A33.86,33.86,0,0,0,63.36,52.16H51.47C49,60,44.74,66,39.69,68.59Z"/><path class="cls-3" d="M16.81,52.16H4.92a33.86,33.86,0,0,0,5.39,7A33.45,33.45,0,0,0,28.2,68.52v-.14C23.32,65.71,19.25,59.83,16.81,52.16Z"/><path class="cls-3" d="M14.31,35.8H.44a33.5,33.5,0,0,0,4,15.44H16.52A56.63,56.63,0,0,1,14.31,35.8Z"/><path class="cls-3" d="M14.51,30.45a.52.52,0,0,1-.22-.26c-.18,0-.29-.24-.28-.42s.23-.32.24-.54-.15-.33-.18-.47a4.9,4.9,0,0,0-1.28-1.82c-.19-.21-.51-.31-.7-.51s0-.36-.09-.58-.78-.43-.75-.9c-.18,0-.16-.06-.22,0l-.65-.7c-.17-.18-.09-.51-.26-.69s-.1-.6-.25-.68c-.33-.16-.66-.15-.91-.41a.4.4,0,0,0-.05.25,1.94,1.94,0,0,0,.29,1c.12.29.39.3.58.51a1.44,1.44,0,0,1,.37.8c.11.45.5.68.62,1.1s.22,1,.57,1.24c.17-.14.4.2.39.36s-.1.29-.16.28a1.49,1.49,0,0,1-.31-.43c-.36,0-.53-.5-.74-.65a.46.46,0,0,1-.2-.19l0-.5c-.2-.22-.35-.44-.54-.65s-.72-.24-.9-.54c.1,0,.57.1.41-.15a3.57,3.57,0,0,0-.91-1.06c-.23-.15-.18-.68-.28-.91a4,4,0,0,1-.44-.9v-.13h0c-.26-.57-1.26-1-2-1.23-.15-.05-.08-.26-.12-.41a3.76,3.76,0,0,0-.48-.8H4.4a33.5,33.5,0,0,0-4,15.44H14.31C14.33,33.37,14.39,31.9,14.51,30.45Z"/><path class="cls-3" d="M23.58,4c.28,0,.71.33.87.39l.54.22a16.35,16.35,0,0,1,3.6-2.53,33.72,33.72,0,0,0-5.83,1.51,3.87,3.87,0,0,1,.09.75C23.14,4.33,23.29,4,23.58,4Z"/><path class="cls-3" d="M31.4,54.12c-.27-.17-.49-.15-.67-.4a1.07,1.07,0,0,0-.56-.48,2.49,2.49,0,0,1-1.05-1,.19.19,0,0,1-.05-.1H27.7a19.67,19.67,0,0,0-.2,2.78,19.07,19.07,0,0,0,2.41,9.3L30.12,63c0-.39.21-.67.27-1,.13-.8.65-1.3.77-2l0-.19c0-.15.19-.52.26-.73l.15-.93c0-.3.31-.86.37-1.2s.13-1.47.11-1.7A1.59,1.59,0,0,0,31.4,54.12Z"/><path class="cls-3" d="M39.58,38c.26.09.16.41.22.69l.58,0c.36.43.55.37.74.91,0,.08.19.13.3.14.07.6,1,.57,1.51.69l.55,0a1.78,1.78,0,0,0,.66.25v0h.13c.33,0,.68.71,1,.81a4.1,4.1,0,0,0,.21,1.15c.07.21.34.22.31.43l0,0a1.19,1.19,0,0,0,.65.42c-.11.6.46.17.68.21s.2.36.17.45a.47.47,0,0,1,0,.1,4.46,4.46,0,0,1,1,.52c.15.1.35.06.36.23a1.3,1.3,0,0,1-.06.51h.15c.2-.09.31-.23.5-.23.44,0,.46.32.87.32l.81-.12a4.3,4.3,0,0,1,.92.3,1.49,1.49,0,0,0,.23.35,57.56,57.56,0,0,0,1-9.35,19.09,19.09,0,0,0-14.29.59C38.86,37.82,39.28,37.9,39.58,38Z"/><path class="cls-3" d="M47.36,59.36a38,38,0,0,0,3.15-7.2h-.23c-.05.29,0,.63-.11.91s-.33.71-.4,1-.13.19-.16.25a1.69,1.69,0,0,0-.39.49,3.7,3.7,0,0,1-.29.7c-.42.49-.58.7-1,1.13-.11.12-.16.37-.23.45a1.7,1.7,0,0,1-1,.6,2.31,2.31,0,0,0-1,.18c-.14.07-.18.18-.26.24-.6.53-1,.26-1.5.86-.23.28-.47.29-.67.46a1.58,1.58,0,0,0-.46,1l-.27,1a3,3,0,0,0-1,1v0c-.21.28-.23.42-.45.7-.49.58-.87.66-1.33,1.21S38.82,66,38,66c-.29,0-.63-.21-.76-.21s-.42-.25-.68-.24c-.06,0-.16,0-.17.1s.19.29.23.36,0,.39.05.64.27.23.21.46a1.37,1.37,0,0,1-.23.56,4.92,4.92,0,0,1-.63.65c-.39.36-.73.26-1.19.43a.55.55,0,0,1-.23,0V69C39.38,68.82,43.9,65.41,47.36,59.36Z"/><path class="cls-3" d="M27.86,51.24h1.19a1.68,1.68,0,0,1-.2-.48c-.1-.51-.43-.92-.52-1.38A16.87,16.87,0,0,0,27.86,51.24Z"/><path class="cls-3" d="M63.27,44.13c-.55-.88-4.89-6.22-9.26-7a1.62,1.62,0,0,1,0,.22c0,.13,0,.27,0,.41a64.75,64.75,0,0,1-1.14,9.16,5,5,0,0,1,.67,0c.39.1.39.52.29.94A4.78,4.78,0,0,1,52,50.33c-.09.3-.17.61-.26.91H63.88c.4-.75.77-1.51,1.11-2.29a33.62,33.62,0,0,0,1.48-4l.27-.95Z"/><path class="cls-4" d="M53.51,46.89a5,5,0,0,0-.67,0c-.24,1.18-.51,2.32-.82,3.44a4.78,4.78,0,0,0,1.78-2.5C53.9,47.41,53.9,47,53.51,46.89Z"/><path class="cls-5" d="M5.18,19.43a3.76,3.76,0,0,1,.48.8c0,.15,0,.36.12.41.7.26,1.7.66,2,1.23h0V22a4,4,0,0,0,.44.9c.1.23,0,.76.28.91a3.57,3.57,0,0,1,.91,1.06c.16.25-.31.16-.41.15.18.3.63.26.9.54s.34.43.54.65l0,.5a.46.46,0,0,0,.2.19c.21.15.38.62.74.65a1.49,1.49,0,0,0,.31.43c.06,0,.15-.18.16-.28s-.22-.5-.39-.36c-.35-.25-.44-.77-.57-1.24s-.51-.65-.62-1.1a1.44,1.44,0,0,0-.37-.8c-.19-.21-.46-.22-.58-.51a1.94,1.94,0,0,1-.29-1A.4.4,0,0,1,9,22.46c.25.26.58.25.91.41.15.08.08.5.25.68s.09.51.26.69l.65.7c.06-.05,0,0,.22,0,0,.47.6.54.75.9s-.06.41.09.58.51.3.7.51a4.9,4.9,0,0,1,1.28,1.82c0,.14.19.21.18.47s-.23.32-.24.54.1.41.28.42a.52.52,0,0,0,.22.26,54.72,54.72,0,0,1,2-11Z"/><path class="cls-5" d="M25,4.61l-.54-.22c-.16-.06-.59-.4-.87-.39s-.44.33-.73.34a3.87,3.87,0,0,0-.09-.75A34,34,0,0,0,4.92,18.51H16.81C18.69,12.59,21.55,7.74,25,4.61Z"/><path class="cls-5" d="M51.79,45.94a4.3,4.3,0,0,0-.92-.3l-.81.12c-.41,0-.43-.33-.87-.32-.19,0-.3.14-.5.23h-.15a1.3,1.3,0,0,0,.06-.51c0-.17-.21-.13-.36-.23a4.46,4.46,0,0,0-1-.52.47.47,0,0,0,0-.1c0-.09,0-.42-.17-.45s-.79.39-.68-.21a1.19,1.19,0,0,1-.65-.42l0,0c0-.21-.24-.22-.31-.43a4.1,4.1,0,0,1-.21-1.15c-.34-.1-.69-.8-1-.81h-.13v0a1.78,1.78,0,0,1-.66-.25l-.55,0c-.55-.12-1.44-.09-1.51-.69-.11,0-.27-.06-.3-.14-.19-.54-.38-.48-.74-.91l-.58,0c-.06-.28,0-.6-.22-.69s-.72-.21-.84-.5a18.9,18.9,0,0,0-4.14,2.55V51.24H50.8a49.71,49.71,0,0,0,1.22-5A1.49,1.49,0,0,1,51.79,45.94Z"/><path class="cls-5" d="M34.6,68.76a.55.55,0,0,0,.23,0c.46-.17.8-.07,1.19-.43a4.92,4.92,0,0,0,.63-.65,1.37,1.37,0,0,0,.23-.56c.06-.23-.22-.22-.21-.46s0-.48-.05-.64-.28-.17-.23-.36.11-.1.17-.1c.26,0,.43.24.68.24s.47.22.76.21c.82,0,1.24-1.08,1.78-1.72s.84-.63,1.33-1.21c.22-.28.24-.42.45-.7v0a3,3,0,0,1,1-1l.27-1a1.58,1.58,0,0,1,.46-1c.2-.17.44-.18.67-.46.5-.6.9-.33,1.5-.86.08-.06.12-.17.26-.24a2.31,2.31,0,0,1,1-.18,1.7,1.7,0,0,0,1-.6c.07-.08.12-.33.23-.45.41-.43.57-.64,1-1.13a3.7,3.7,0,0,0,.29-.7,1.69,1.69,0,0,1,.39-.49c0-.06.13-.14.16-.25s.3-.61.4-1,.06-.62.11-.91H34.6Z"/><path class="cls-5" d="M28.33,49.38c.09.46.42.87.52,1.38a1.68,1.68,0,0,0,.2.48h4.63V40.87A19.09,19.09,0,0,0,28.33,49.38Z"/><path class="cls-5" d="M29.12,52.26a2.49,2.49,0,0,0,1.05,1,1.07,1.07,0,0,1,.56.48c.18.25.4.23.67.4a1.59,1.59,0,0,1,.68,1.08c0,.23-.08,1.49-.11,1.7s-.32.9-.37,1.2l-.15.93c-.07.21-.23.58-.26.73l0,.19c-.12.72-.64,1.22-.77,2-.06.34-.31.62-.27,1l-.21,1.26A19.32,19.32,0,0,0,33.67,69h0V52.16H29.07A.19.19,0,0,0,29.12,52.26Z"/><path class="cls-5" d="M71.9,31.73l-3.2-4.27-1.23-1.65-.17-.21-.51-.69.22-.17L69.31,23l.27-.2h0l.67-.51a.82.82,0,0,0,.32-.68s0,0,0-.05a.41.41,0,0,0,0-.11l0-.26c0-.11,0-.22,0-.32s0-.16,0-.23a2.46,2.46,0,0,0-.07-.29,1.6,1.6,0,0,0,0-.21l-.09-.26a1.34,1.34,0,0,0-.07-.18,1.6,1.6,0,0,0-.1-.23L70,19.29l-.12-.22-.08-.13-.14-.22a.61.61,0,0,1-.07-.1,3.15,3.15,0,0,0-.22-.29L68,16.5l0,0c-.84-1.11-1.72-2.25-2.61-3.28a2.28,2.28,0,0,0,.4-1.28,2.26,2.26,0,0,0-.4-1.28,2.49,2.49,0,0,0-2.06-1.06,2.54,2.54,0,0,0-1.74.68l-1-.51a6.84,6.84,0,0,0-2.87-.79H57a5.06,5.06,0,0,1-1.11-.19l-.12,0A34.41,34.41,0,0,0,45.47,2.82,25.72,25.72,0,0,0,36.93,1c-6,0-11.57,5.11-13,6.93a37.47,37.47,0,0,0-6.56,14.73A55.87,55.87,0,0,0,16,34.86q0,2.58.18,5.16a50.34,50.34,0,0,0,3,14c.37,1,.77,1.92,1.21,2.85a32.26,32.26,0,0,0,2.83,4.92,20.19,20.19,0,0,0,4.67,4.82c-1.78-3.22-3.54-6.88-3.54-10.81A22.46,22.46,0,0,1,46.81,33.3a22.76,22.76,0,0,1,17.38,8.27c4.61-.27,10.13-3.75,11.56-4.7Z"/></svg>