<?xml version="1.0" encoding="utf-8"?>
<!-- Generator: Adobe Illustrator 21.1.0, SVG Export Plug-In . SVG Version: 6.00 Build 0)  -->
<svg version="1.1" id="Layer_1" xmlns="http://www.w3.org/2000/svg" xmlns:xlink="http://www.w3.org/1999/xlink" x="0px" y="0px"
	 viewBox="0 0 431.9 433.2" style="enable-background:new 0 0 431.9 433.2;" xml:space="preserve">
<style type="text/css">
	.st0{opacity:5.000000e-02;}
</style>
<g class="st0">
	<path d="M2.7,141.9c2.1-5,1.9-14.3,1.2-20.5c-0.6-4.4-4.4-18.2-5.6-20.5c-0.8-1.5-0.6,1.9-0.2,6.6c0.5,5.6,0.8,10.8,1,13.3
		c0.6,6.9-1.4,14.9-3.5,19.6v11.3C-1.2,148.5,1.3,145.3,2.7,141.9z"/>
	<path d="M11.7,145.8c1.7-4.7,2.5-7.8,2.4-14c-0.1-4.7-2.2-10.7-3.1-15.4c-2.2-11-6.6-22.1-13.5-31.9C-3.7,82.6-4,86.3-1.8,90
		c2.9,4.8,13,29.1,9.5,46.3c-1,5.2-2.9,12.9-6.3,15.7c-0.7,0.6-2.9,2.3-5.8,4.5v5.4c4.1-3.1,7.6-5.6,9.2-6.9
		C6.6,153.5,10.7,148.5,11.7,145.8z"/>
	<path d="M74.8,52.9c-4.2-3.6-7-4.3-15.3-3.3S32,50.1,25.3,45.4c-6.8-4.8-10.1-7.4-12.8-13.3S11,20.2,10.4,14.8
		C10.2,13.2,9.6,9.6,9,7C8.8,5.9,8.6,5,8.4,4.5C7.6,2.1,6.6-0.7,5.1-0.9C1.9-1.2-0.3,2-1.6,7l0,0c-1.5,5.7-1.9,13.7-1.6,21.2
		c0.4,8,3.7,14.3,5.4,18c1.4,3.2,4.6,9.9,13.3,15.1c0.4,0.2,2.2,1,3.8,1.5c7.9,2.3,23.5,3,31.3,2.3c4.5-0.5,12.4-1.4,10.8-2.6
		c-0.6-0.4-4.8,0.2-9.2-0.1c-7.8-0.5-17.8-1.7-20.7-2.2C27,59.4,20.6,58,16.1,53.8C11.7,49.5,5,43.6,3.1,34.2
		c-1.1-5.3-3.4-19.7,2.1-22c1.3-0.5,0.6,13.3,2.3,20.4c1.7,7,6.3,14.7,11.9,17.5s17,5.6,23.6,6.6c7.6,1.1,11.2,1.6,22.4,1.8
		c11.1,0.3,25.2-1.7,24.5-4.4C89.7,53.6,79,56.5,74.8,52.9z"/>
	<path d="M9.4,100.7c2.1,6.9,2.8,9.9,4.3,15.8s2.7,15,3.5,14.1c-0.1-2.5,0.6-5,1.4-6.8c0.1-0.2,0.4-0.9,0.8-1.7
		c0.5-1.1,10.5-19.9,27.1-26.9c19.8-8.3,49.7-11.7,53.8-12.2c7.6-0.9,21.4-17.4,29.4-24c3.3-2.8,12.2-8.3,16.9-13.4
		c4.8-5.2,3.5-12,2.2-11.6c0,0-0.7,1-1.8,2.5c-1.9,2.2-5.6,5.6-11.8,8.5c-8.6,2.9-14.7,1.1-28,8c-12.9,6.7-51.6,15-65.9,15.6
		c-0.7,0-1.2,0.1-1.4,0.1c-5.6,0-13.2-1-20.5-3.5l0,0c-1.2-0.4-2.3-0.8-3.4-1.3c-2.9-1.5-7.1-5.8-7.4-5.3c-0.3,0.5,2.7,6,7.8,8.7
		c0.8,0.5,1.8,1.1,3,1.6l0,0c3.2,1.5,7.1,3,8.3,3.3c4.6,1.3,10.7,1.6,12,1.6c4.1,0.1,31.4-4.3,38.6-3.9c5.3,0.3,15.4-0.7,23.5-3.7
		C113,62,122,55.3,124.2,54.7c0,1.1-12.3,15.8-23.2,19.5c-11,3.6-24.5,2.9-41.3,7c-5.4,1.3-11.8,5.7-16.1,8.1
		c-8.5,4.7-14.9,8.8-18.4,12.5c-2.1,2.2-4.1,5.4-5.7,7.7c-1.1,1.5-2.1,2.6-2.8,2.6C15.2,112,16,99.3,10.8,91
		C6.2,84-0.3,75.6-4.4,70.7v7.1c3.1,3.5,5.8,6.9,6.6,7.8C3.2,86.9,7.3,93.8,9.4,100.7z"/>
	<path d="M19.4,82.9L19.4,82.9c1.7,1.5,3.4,2.4,4.6,2.8c5,1.8,17.8,0.6,24.7-4.4c8.7-5.3,30.8-5.7,30.4-7.1S63.9,72.5,57,73.4
		c-9.9,1.4-18.6,7.2-30.9,4.2c-1.2-0.3-2.5-0.8-3.7-1.6c-0.6-0.4-1.9-1.3-3.1-2.4l0,0c-1-0.8-1.9-1.8-2.5-2.2
		c-8.3-4.7-18-18.1-21.2-25.6v10.6C0.9,64.5,11.9,74.2,16,79.3C17,80.5,18.2,81.8,19.4,82.9z"/>
	<path d="M7.5,80.2c10.6,10.5,9.2,21.3,11.1,21.4c0.2,0,0.4-0.1,0.7-0.2l0,0c2.2-1,4.6-5.5,7.4-7.5s15.2-5.5,14.2-6.2
		s-14.5,2.8-18.3,1.8c-0.8-0.2-1.9-0.9-3.3-2.2l0,0c-0.7-0.7-1.4-1.5-2.2-2.5c-1.2-1.7-2.7-3.7-4.6-6C9.8,75.6,1.2,67.4-4.4,60.5V67
		C-1,71.1,3.3,76,7.5,80.2z"/>
	<path d="M-0.2-1.8C0-1.9,0.1-2.1,0.3-2.2h-4.7v4.8C-3.5,1.3-2.1-0.1-0.2-1.8z"/>
	<path d="M38.1,9.1c3.8,2.3,6.5,4.1,13.4,7.4c8.1,3.8,15.8,4.8,16.9,4.3c0.4-1.2-6.7-5.2-16.6-9.7S37.4,0.7,37,0.4
		c-0.3-0.3-1-1.2-1.9-2.6H25c0.8,0.8,1.6,1.8,2.6,2.9C29.7,3.1,34.3,6.9,38.1,9.1z"/>
	<path d="M198.9,55.6c-0.6-0.2-0.3,2.8,0.1,4.7c3.4,17.8-1.4,28-2.9,32.2c-0.8,2.4-5.1,11.5-9.5,20.1c-2.5,4.9-4.4,7.9-6.1,10.1
		c-1.3-1.9,0.4-7.8,1.5-10.4c2.7-6.3,8.3-16.3,11.8-25.4c4.5-11.5,5.1-21.5,3.3-20.1c-1.8,1.3-2.4,7.5-5.4,14.4
		c-3.4,8.1-9,17.4-11.2,21.2c-6.4,10.8-6.3,23.1-5.7,25.6c0.4,1.6,2.4,1.5,3,0.6c3.4-2.3,8.8-8.3,12.9-14.8
		c2.3-3.7,10.8-20.7,12.1-30.8c0.6-5,2.3-12.8-1.3-22.5C200.8,59.1,199.5,55.8,198.9,55.6z"/>
	<path d="M216.2,203.3c-7.7,4-18.1,9.6-23,14.6c-0.1,0.1-0.2,0.2-0.3,0.3h10.5c4-3.4,8.4-6.4,12.8-9V203.3z"/>
	<path d="M204,180.4c-4.4,4.7-6.4,9.1-7.2,12.8s-5.1,18.3-3.6,18.6c1.3,0.2,14.4-12.9,22.9-19V186c-4.7,2.8-7.6,5.7-10.9,9.6
		c-2.1,2.5-4.2,3.1-4.2,2.7c0.3-2.9,0.9-5.5,2-8c0.9-1.7,1.9-3.4,3-5.1c2.5-3.3,3-4.2,6.9-6.6c1-0.6,3-1.8,3.1-1.9v-6.6
		C212.5,172.8,208.1,176.1,204,180.4z"/>
	<path d="M216.2,214c-0.4,0.3-0.8,0.6-1.2,0.8c-1.5,1.1-3,2.2-4.4,3.3h5.6L216.2,214L216.2,214z"/>
	<path d="M214.5,24.8c-0.7-3.8-3.2-5.4-4.1-5.1c-6.1,2.6-7.1,19.3-7.3,26c-0.4,11.8,3,20.8,6.7,24.8c1.8,2,4.3,4.7,6.5,7.3v-7.1
		c-1.6-1.9-2.8-3.3-3.4-3.8c-3.2-2.9-4.9-7.3-4-8.1c0.3-0.3,3.3,3.4,7.4,8.3v-6.6c-0.9-1.1-1.6-2.1-2.3-3.1
		c-9.7-13.9-7.6-16.1-6.3-22.2s5-8.2,4.7-4.7c-1.3,12.1-1.6,13.7,1.7,22c0.5,1.3,1.3,2.7,2.3,4.1V45.9c-0.7-1.5-1-2.8-1.1-3.7
		C214.7,36.6,215.1,28.3,214.5,24.8z"/>
	<path d="M119.1,83.6c1.9-3.4,20.7-25,19.3-26.1S117,74.8,113.8,78.3c-5.8,6.3-8,17-6.6,21.3c2.8,9.2,4.9,18.8,10.7,30.1
		c1.2,2.3,7,9.6,7.3,9c0.3-0.7-4.8-10.4-7-20.5C116.7,110.6,111.6,97.4,119.1,83.6z"/>
	<path d="M165.1,7L165.1,7c10,11.2,9.9,21.8,10,22.2c1,4.4,0.4,20-4.4,26.7c-4.8,6.7-15.1,15.1-19.1,20.8c-5.4,7.9-5.5,12-5.8,25.3
		s0.5,22.1,3.3,28.1c2.8,6,6.8,10.6,8.1,11.5c1.2,1,6.6,7.2,1.7-2c-4.4-8.4-8.9-6.1-6.9-27.5s-0.5-11.8,2.4-23.5
		c2.9-11.6,14.9-23.3,16-24.5c4.8-5.8,8.3-10.3,9.1-18.1c0.9-7.8-0.1-13.9-2.2-23.6c-1.5-7.1-4.9-13.9-5.7-15.6
		c-1-2-4.8-5.7-8.4-9.2h-8.8C158.8,0.8,162.3,3.9,165.1,7z"/>
	<path d="M148.3,195.2c-1.6-4.2-3.8-9.9-4.9-8.7c-1,1.3,0.4,7.2,1.5,11c2.6,8.1-1.6,14.6,3.4,17.2c2.1,1.1,4.1,2.3,5.8,3.4h8.8
		c-3.3-3.1-6.6-5.9-7.6-6.9C151.6,207.8,150.7,201.5,148.3,195.2z"/>
	<path d="M130.4,217.3c-3.3-5.1-21.5-1.3-33.5,0.8h34.2C130.8,217.8,130.6,217.6,130.4,217.3z"/>
	<path d="M58.1,204.6c-6-7.2-11.2-13.2-14.8-19.2c-0.3-0.6-4.6-10.1-7.9-17.5c-1.6-4.7-2.9-9.3-2.6-12.6c0.6-9.2-0.2-18.4-0.3-22.9
		c-0.2-5.5,4.8-19.7,7-21.2c5.6-3.8,13.5-4.4,21.6-3.5s21.7,3.7,26.6,7.9c5,4.3,8.5,7.4,12.6,14.8c-2.5-2.3-11.2-9.5-16.2-12
		c-4.9-2.5-24.5-4.6-25.9-5c-6.5-1.8-8.8-2.3-14.1-0.3s-6.4,6.8-6.7,10.8s-1.7,28.9,0.8,38c2.6,9.1,11,24.2,20.9,36.9
		c7.1,9.1,13.3,11.8,15.3,10.2c-5-5.6-10.6-9.2-11.5-17.8c-0.5-5.1-12.4-15.6-16.4-30.5c-3.4-12.9-3.9-26.5-3.8-27.8
		c0.8-7.5,2.6-11.7,6-12.9c3.4-1.2,30-0.1,34.5,2.7c7.5,4.6,19.3,14,21.8,18.5c3.7,6.7,6.5,25.6,6.6,25.9c0.4,2.5,6,17.3,3.7,25.3
		c-1.6,5.8-7.3,6.1-13.1,7.2c-3.1,0.6-3.1,2.2-8,1.9c-4.9-0.2-11.9-7.8-18.2-15.7c-10.7-13.3-20-31.5-19.2-39.8
		c0.9-9.4,0.4-9-0.3-14.4c-0.4-2.9,4.7-2,9.5-0.9s11.6,3.3,16.2,5.1c12.5,4.8,22.2,31.8,22.9,36.7c0.8,4.9-0.2,13.1-1.8,16.2
		s-3.4,5-4.8,4.8s-1.3-0.7-2.3-1.9c-4.6-5.3-9.4-12.5-12.4-17.4c-3-5-6.6-7.3-10.7-13.8s-4.4-15-5.1-17.5c-0.2-0.7-0.4-2.4,0.4-2.8
		c0.7-0.4,8.3,3.4,10,4.9s2.2,2,3.5,3.3c6.8,8.3,11.2,21.8,10.6,24.8s-6.7-8.2-7.1-9.7c-0.6-2.8-8-12.9-9.9-16.2
		c-1.8-3.3-2.5,2.5-0.5,8.1c2.1,5.7,18.9,28.9,20.3,27.7c1.3-1.2,3.8-9,2.4-14.5c-1.9-7.8-3.8-17.6-21.4-30.3c-5.2-3.7-7.8-4.3-9-4
		s-7.1-1.6-3.6,7.5c1.7,6.7-0.3,16.9,2.8,21.5c1.9,5.5,6.5,9.8,10.2,13.2c5,4.5,13.2,14.7,13.9,15.5c1.8,2.3,3.9,5.8,7.3,5.7
		c4.2-0.2,7.3-1.6,10.1-5.4c2.7-3.7-0.4-26.3-0.7-27.7c-0.4-2.2-1-4.2-1.5-5.8c-1.1-4.5-2.6-8.7-4.8-11.5
		c-7.6-10-15.1-16.6-26.4-20.1c-11.3-3.5-25.1-3.6-26.1-2.3c-0.7,1-1.1,22.6,0,27.1c3.6,14.7,20.2,39,27.9,47.6
		c5.5,6.1,12.4,6.1,17.1,6s8.9-1.5,13.5-2s12.9-2.7,13.9-5.9c0.6-1.9-1.4-7.2-1.3-9.5c0.4-8-0.9-15.7-1.8-21.8c0,0-1.7-5.8-2.1-7.2
		c-2.8-12.4-8.3-26.5-10.5-30.8c-0.9-1.8-11.3-22.7-16.7-25.3c-7.7-3.7-45.1-3.6-50.8,1.3c-4.2,3.5-8.4,26.7-9.7,31.8
		c-2.3,8.8-5.6,28.2-4.1,31.7c0.4,0.9,4.9,1.9,9,8.6c2.1,4.6,5.7,13.1,10.8,21.6c2.7,5.1,5.5,9.9,7.6,12.6c3.7,4.9,6.6,5.6,8.8,7.3
		c0.1,0.1,0.2,0.1,0.3,0.2h13.3c-3.7-0.8-6.8-1.9-8.6-3C61.6,212.9,60.8,207.8,58.1,204.6z"/>
	<path d="M126.9,192.4c2.2,6.1,3.6,12,2.8,14.3s-10.7-1.2-17-0.8c-3.5,0.3-10.7,0.4-17.5,2.6c-8.9,2.8-18,2.5-17.4,4
		c1.1,2.6,37.3-3.7,52.1,0s0.8-16.7-0.3-25.9c-1-9.3-7.6-25.4-8.4-24.7s-0.9,4.4,0.2,8.8C122.7,174.9,124.7,186.3,126.9,192.4z"/>
	<path d="M17.7,164.6c0.6-1.3,1.2-3.4,1.6-5.5c0,0,0.9-9.4,1.1-14.1s5.6-18.9,6.4-21c0.6-1.6,1.5-6.2,0.7-6.3
		c-0.8-0.1-3.1,4.2-4,6.6c-1.6,4.9-5.1,10.5-6.6,15.5S11.3,157,9,159.3c-3,3.1-3.7,3.8-8.3,7.1c-1.5,1.1-3.3,2.4-5.2,3.7v6.6
		c5.7-2.8,12.7-5.4,15-5.6C13.1,170.8,16,168.3,17.7,164.6z"/>
	<path d="M44.8,209.9c-8.2-14-19.5-32.1-22.3-33.3c-2.6-1.1-5.3,0.1-6.9,0.7c-9.4,3.3-15.5,5.9-20,8.6v6.8c1.5-1.1,2.9-1.9,4.1-2.5
		c7.6-3.5,16.9-7.8,16.9-6.4c0.1,3.3-7.9,12.4-14.8,16.1c-1.6,0.9-3.8,2-6.2,3.2v5.9c2.9-1.7,5.8-3.3,8.6-4.7
		c5.3-2.7,9.3-3.8,12.3-5.7s2.6-4.8,6.9-7.6c4.4-2.8,12.5,20.4,13.6,22.2c1,1.7,2.5,3.2,4.2,4.7h11.1C48.7,215,45.9,212,44.8,209.9z
		"/>
	<path d="M19.4,204.5c-0.1,0-0.1,0-0.2,0c-6.7,1.1-14.3,3.3-23.7,9.5v4.1h4.7c6.8-5.6,14.3-4.6,19.1-3c2.6,0.9,4.4,2,4.8,2.3
		c0.3,0.2,0.5,0.5,0.8,0.7H35C31.6,213.4,24.8,203.9,19.4,204.5z"/>
	<path d="M189.6,204.2c-0.6-7.5-0.3-13.6,4.2-21.5c3.5-6.1,14.2-14.6,22.4-20.7v-5.4c-7.5,5.7-19.6,14.7-21.9,16
		c-3.2,1.8-14.3,9.2-13,14.1c1.4,4.9,1.7,6.6,2.6,9.1c0.9,2.6-0.2,16.6-1.1,19c-1.2,3.4-2.2-9.1-3.2-13.2
		c-2.3-9.3-5.3-11.7-8.5-15.8c-1.2-1.6,1-3.1,1.8-4c5.9-6.3,18-11.7,27.6-18c5.5-3.6,11.2-7.7,15.6-12v-11.3c-2.1,4.7-5,8-7.6,9.6
		c-4.5,2.8-9.7,6.1-18.6,11s-17.3,10.3-19.2,11.7c-6.6,4.7-10.3,12.1-10.4,14.5c-0.5,6.5,10.5,8.6,15.9,22.5
		c0.5,1.3,0.9,5.1,0.9,8.5h9.4C188.3,212.5,189.9,207.2,189.6,204.2z"/>
	<path d="M158.8,196c-3.5-5.3-6.7-15.2-9-20c-2.8-5.9-4.3-12.9-7.5-16.2s-7.3-7.1-9.7-13.3c-1.8-4.8-2.9-1.9-2.2,2.7
		c0.8,4.5,5.1,10.8,9.1,17.5c1,1.7,1.8,9.5,4.6,14.8c1.7,3.2,10.6,20.8,17.2,29.1c1.9,2.4,4,5.1,6,7.7h6.8
		c-1.3-3.5-3.2-8.1-5.3-11.7C165.4,200.8,160.9,199.1,158.8,196z"/>
	<path d="M141.4,194.7c-0.4-5.3-0.5-11.5-1.2-15.4c-1.2-6.5-7.1-18-12.7-24.9c-1.2-1.5-5.7-7-9.3-12.9c-3.1-5.3-5.5-10.8-7.5-17.5
		c-2-6.8-9.1-26.5-11.8-31.1c-3.6-6.2-21.2-0.7-26.5,0.2c-5.3,0.9-19.1,3.2-18.9,4.3c0.1,0.6,16.2-0.9,18.7-0.7
		c6.5,0.4,19.1-2.1,21.6,0.2c2.4,2.3,3.8,7.5,7.2,14.1c2.9,5.7,4.5,9.4,7,15.3c2.4,5.8,9.8,23.7,11.3,25.5
		c0.4,0.4,7.6,13.2,11.5,23.2c1.8,4.5,3.2,8.9,4.4,12.9c1,3.6,3.8,10.9,4.5,17.6c0.5,5.3-0.6,9.9-0.3,12.8h7.5
		c-0.5-0.5-0.9-1.1-1.2-1.7C142.3,210.6,141.8,200,141.4,194.7z"/>
	<path d="M59.1,9.3c5.3,3.1,14.9,8.1,20.7,9c15,2.3,29.5-1.9,33.7-0.1c4.3,1.9,11.9,12.3,19,13.6c-2.8,2-10-0.2-17.4-5.3
		s-21.4-0.3-30.6,0.3c-9.2,0.5-27.5-1.5-37.3-4.4c-3-0.9-8.8-3.7-13.1-6.8c-5.3-3.7-12.9-12-14.7-12.9c-3.8-1.9-7.9-3.5-8.3-2
		c-0.5,1.5,2.7,2.8,6.7,6.3c0.5,0.5,1.1,0.9,1.6,1.4C24.9,13,26,19.2,37.9,25.8s42.4,11.6,53.2,8.5s41.2,1.5,41.3,2.6
		c-1.5,0.5-16.6,5.5-31,6c-12.6,0.5-24.7-3.3-26.6-4.6c-2.7-1.9-22.2-1.1-29.3-0.8c-4.1,0.2-8.2-3.3-17.2-7.9
		c-1.5-0.8-4.7-2.5-7.3-5.2l0,0c-2.5-2.8-6-10.7-6.6-9.8c-0.6,3,1,8.7,4,12.7c0.3,0.6,2.1,2.7,2.7,3.2l0,0
		c3.1,2.7,14.1,15.7,24.6,15.6c5.7-0.1,25.2-1.8,28.8,0.2c7.4,4.2,17.9,3.5,18.1,3.5c13.2-2.4,35.7-8.1,39.1-9
		c6-1.5,8.9-2.9,11.6-6.2c0.9-1.1-6.7-7.2-7.9-7.9c-1.2-0.7-8-2.4-10.7-5.8c-4.8-6-0.9-9.7-10.8-9.5c-6.5,0.1-19,2.1-31.8-0.3
		c-1.2-0.2-16.2-3.5-16.8-3.9c-4.5-2.5-9.1-6-12.9-9.2H41.2c2.4,2,5.2,3.8,7.9,5.3C51.6,4.6,57,8.1,59.1,9.3z"/>
	<path d="M176,9.1c1.9,2.3,2.8,9.5,4.2,9s3.7-13.5,4.2-14.7c0.7-1.8,1.3-3.7,1.9-5.6H177c0,2.6-0.3,4.9-0.9,5.4
		C176,3.3,175.2,1,174-2.2h-6.8c0.9,1.2,1.8,2.4,2.6,3.5C172.4,4.6,174.1,6.9,176,9.1z"/>
	<path d="M151.1,7L151.1,7c0.9,0.5,1.8,0.9,2.7,1.3c1.6,0.8,5.6,1.6,9,5c0.7,0.8,4.7,8.2,5.1,8.3c1.4,0.2-0.1-7.4-6.9-14.6l0,0
		c-3.8-2.8-8.5-5-10.3-6.1c-1.2-0.7-2.7-1.8-3.9-3.1h-7.5c0.1,0.9,0.3,1.6,0.8,2.1C142,2,146.9,4.9,151.1,7z"/>
	<path d="M182,35.1c-0.2,7.3,0.8,13.3-1.3,20.5c-1.6,5.3-5.5,12.6-7.9,14.9c-5.4,5.6-14.6,11.7-15.1,29.1c-0.5,17.3,0.3,30.1,2.8,36
		c0.4,0.9,2.1,2.5,2.3,1.3c0.4-2.2-0.7-8.7-0.8-10.9c-0.3-11-1-14.3,2.3-29.4c1.3-6.1,3.6-7.9,7-14c5-9.1,9.6-14.9,11.6-17.7
		c5.8-8.6,4.2-17.1,4.2-21.3c0-5.6,0.5-15.2,2.5-23.7c1.1-4.6,3.2-9.8,5.1-12.8c1.9-2.9,3.1-3.9,4.9-5.8c1.2-1.2,2.4-2.3,3.6-3.4
		h-10.5c-2.2,2.3-4.1,5.4-5.7,9.2C184.1,14.3,182.3,24,182,35.1z"/>
	<path d="M201.1,7c-1.7,2-2.7,3.4-2.9,3.8c-4.4,8.8-6.3,27.4-5.8,35.5c0.2,4,2.2,15-7.6,25c-8.8,9-13.9,16-16.4,32
		c-0.6,3.8-1.1,22-0.6,29.2c0.3,3.6,0.8,4.9,1.2,5.5c1.7,2.3,6.7-0.5,14.7-4.8c10.5-5.5,15.3-11.2,20.1-27.7
		c0.4-1.3,4.6-17.7,4.9-19.4c0.3,3.6-0.6,22.7-1.5,26.2c-4.2,14.8-14.2,20.6-19.6,24.8c-6.3,4.9-19.4,9.4-28.6,9
		c-2.4-0.1-5.8-1.9-10.2-8.1c-1.5-2.1-4.9-12-4.7-18.1c0.2-6.3-1.2-23.4-2.4-22.4c-1.2,0.9-7.8,11.5-9.9,18.6
		c-3.1,8.7-0.2,21.9,4.4,29.5c4.6,7.6,10.9,9.9,12,16.5c1,6.6,9.4,16.4,10,15.4c0.1-0.1,0.2-0.2,0.3-0.3
		c2.9-3.3,13.3-13.6,21.1-17.8c7.9-4.3,26.3-11,30.6-15.6c2.6-2.7,2.7-7.2,3.1-11.6c0.3-3,1.6-7.4,0.3-6.2
		c-1.3,1.2-4.1,12.2-10.3,14.7s-21,12.8-35.4,16.7c-4.2,1.1-7.5,6.1-11.2,9c-1.6,2.4-6-15.7-10.6-18.4c-4.7-2.8-13.1-17.1-9.9-26.1
		c0.7-1.9,3.2-7.3,4.4-9.3c0.1,1.8-0.5,15.6,0.8,19.9c3.1,10.3,10.1,14.2,11.5,16.6c1.2,1.9,4.1,10.2,5.5,8.6
		c3.2-3.6,9.4-6.4,16.4-8.2s15-6.7,21.9-10.6c6.9-4,12.5-9.6,15.3-18.7c2.9-9.1,2.9-18.3,1.9-27.3c-1.5-15.4-5.4-19.7-6.2-18.4
		c-0.8,1.2-0.7,9.4-2.7,13.7c-0.5,1.1-8,22.6-10.7,28.5c-3.1,6.6-12.1,13.4-17.1,15.3c-4.7,1.8-5.7-3.5-5.8-6.4
		c-0.4-8.3,1.6-26.6,6.9-33.5c5.3-6.9,5.6-6.4,9.5-13.1c3.8-6.4,7.8-19,9-25.9c1.6-8.9-1.5-29.6,11-38c5.1-3.4,5.1-5.3,6-7.9
		c0.4-1.2,1-2.6,2.4-4.4v-4.9h-5.6C206.5,1.1,203.2,4.5,201.1,7z"/>
	<path d="M103.2,2.6c6.1-1.1,17.5-0.5,22.1,4.4c0.4,0.4,0.7,0.8,0.9,1.3c5.5,12.5,12,13,16.6,15.6c4.7,2.7,10.7,8.4,11.8,13.9
		s-1.2,6.1-2.2,8.7c-0.6,1.6-27.5,34.4-28.4,36.8c-2.2,5.5-2.3,5.6-3.5,11.5c-2.6,12.7,6,32.3,6.9,31.9c0.9-0.4-1.6-10.8-1.4-19
		c0.2-5.8,2.3-10.1,2.7-15.2c0.4-5.1,8.5-21,17.4-30.2c2.7-2.8,16.8-16.7,13.5-28.4c-4-13.8-20.6-19.3-21.4-22.6
		c1.1,0.6,2.4,1.3,3.6,2c1.6,0.9,3.2,1.8,4.7,2.3c2.6,0.7,15.5,7.8,17.5,16.3c2.1,8.8-3.3,19.1-4,20.4c-0.8,1.4-1.6,2.7-2.4,3.6l0,0
		c-2.9,3.3-14.8,16.8-19.6,24.8s-4.2,15.9-4.7,22.8c-0.2,2.4,4-8,7.4-15.4c2.1-4.5,3.7-6.4,4.5-7.8c0.5-0.7,0.9-1.5,1.3-2.3
		c6.8-11.5,13.3-17,17.5-20.6c2.5-1.8,7.5-7.8,7.2-19.1c-0.1-2.2-2.3-13-10.4-20c-0.3-0.2-9-4.7-17.1-10.2
		c-5.5-3.7-10.6-8.1-12.5-10H96.9c-2.3,0.4-4.3,0.7-6,0.9c-6,0.7-12.1,0.2-17-0.9H60.6C67.4,2.7,89.4,5,103.2,2.6z"/>
</g>
<g class="st0">
	<path d="M223,141.9c2.1-5,1.9-14.3,1.2-20.5c-0.6-4.4-4.4-18.2-5.6-20.5c-0.8-1.5-0.6,1.9-0.2,6.6c0.5,5.6,0.8,10.8,1,13.3
		c0.6,6.9-1.4,14.9-3.5,19.6v11.3C219,148.5,221.6,145.3,223,141.9z"/>
	<path d="M232,145.8c1.7-4.7,2.5-7.8,2.4-14c-0.1-4.7-2.2-10.7-3.1-15.4c-2.2-11-6.6-22.1-13.5-31.9c-1.2-1.8-1.5,1.9,0.7,5.6
		c2.9,4.8,13,29.1,9.5,46.3c-1,5.2-2.9,12.9-6.3,15.7c-0.7,0.6-2.9,2.3-5.8,4.5v5.4c4.1-3.1,7.6-5.6,9.2-6.9
		C226.9,153.5,230.9,148.5,232,145.8z"/>
	<path d="M295,52.9c-4.2-3.6-7-4.3-15.3-3.3s-27.4,0.5-34.2-4.2c-6.8-4.8-10.1-7.4-12.8-13.3s-1.5-11.9-2.1-17.3
		c-0.2-1.6-0.8-5.2-1.3-7.8c-0.2-1-0.5-1.9-0.6-2.5c-0.8-2.5-1.8-5.2-3.3-5.4C222.1-1.2,220,2,218.6,7l0,0
		c-1.5,5.7-1.9,13.7-1.6,21.2c0.4,8,3.7,14.3,5.4,18c1.4,3.2,4.6,9.9,13.3,15.1c0.4,0.2,2.2,1,3.8,1.5c7.9,2.3,23.5,3,31.3,2.3
		c4.5-0.5,12.4-1.4,10.8-2.6c-0.6-0.4-4.8,0.2-9.2-0.1c-7.8-0.5-17.8-1.7-20.7-2.2c-4.5-0.8-10.9-2.2-15.4-6.4s-11.2-10.1-13.1-19.4
		c-1.1-5.3-3.4-19.7,2.1-22c1.3-0.5,0.6,13.3,2.3,20.4c1.7,7,6.3,14.7,11.9,17.5c5.6,2.8,17,5.6,23.6,6.6c7.6,1.1,11.2,1.6,22.4,1.8
		c11.1,0.3,25.2-1.7,24.5-4.4C310,53.6,299.2,56.5,295,52.9z"/>
	<path d="M229.6,100.7c2.1,6.9,2.8,9.9,4.3,15.8s2.7,15,3.5,14.1c-0.1-2.5,0.6-5,1.4-6.8c0.1-0.2,0.4-0.9,0.8-1.7
		c0.5-1.1,10.5-19.9,27.1-26.9c19.8-8.3,49.7-11.7,53.8-12.2c7.6-0.9,21.4-17.4,29.4-24c3.3-2.8,12.2-8.3,16.9-13.4
		c4.8-5.2,3.5-12,2.2-11.6c0,0-0.7,1-1.8,2.5c-1.9,2.2-5.6,5.6-11.8,8.5c-8.6,2.9-14.7,1.1-28,8c-12.9,6.7-51.6,15-65.9,15.6
		c-0.7,0-1.2,0.1-1.4,0.1c-5.6,0-13.2-1-20.5-3.5l0,0c-1.2-0.4-2.3-0.8-3.4-1.3c-2.9-1.5-7.1-5.8-7.4-5.3c-0.3,0.5,2.7,6,7.8,8.7
		c0.8,0.5,1.8,1.1,3,1.6l0,0c3.2,1.5,7.1,3,8.3,3.3c4.6,1.3,10.7,1.6,12,1.6c4.1,0.1,31.4-4.3,38.6-3.9c5.3,0.3,15.4-0.7,23.5-3.7
		c11.2-4.2,20.2-10.9,22.4-11.5c0,1.1-12.3,15.8-23.2,19.5c-11,3.6-24.5,2.9-41.3,7c-5.4,1.3-11.8,5.7-16.1,8.1
		c-8.5,4.7-14.9,8.8-18.4,12.5c-2.1,2.2-4.1,5.4-5.7,7.7c-1.1,1.5-2.1,2.6-2.8,2.6c-1.5-0.1-0.7-12.8-5.9-21.1
		c-4.5-7.2-11-15.6-15.1-20.4v7.1c3.1,3.5,5.8,6.9,6.6,7.8C223.5,86.9,227.5,93.8,229.6,100.7z"/>
	<path d="M239.6,82.9L239.6,82.9c1.7,1.5,3.4,2.4,4.6,2.8c5,1.8,17.8,0.6,24.7-4.4c8.7-5.3,30.8-5.7,30.4-7.1s-15.2-1.7-22.1-0.8
		c-9.9,1.4-18.6,7.2-30.9,4.2c-1.2-0.3-2.5-0.8-3.7-1.6c-0.6-0.4-1.9-1.3-3.1-2.4l0,0c-1-0.8-1.9-1.8-2.5-2.2
		c-8.3-4.7-18-18.1-21.2-25.6v10.6c5.3,7.9,16.4,17.7,20.5,22.8C237.2,80.5,238.4,81.8,239.6,82.9z"/>
	<path d="M227.8,80.2c10.6,10.5,9.2,21.3,11.1,21.4c0.2,0,0.4-0.1,0.7-0.2l0,0c2.2-1,4.6-5.5,7.4-7.5c2.8-2,15.2-5.5,14.2-6.2
		s-14.5,2.8-18.3,1.8c-0.8-0.2-1.9-0.9-3.3-2.2l0,0c-0.7-0.7-1.4-1.5-2.2-2.5c-1.2-1.7-2.7-3.7-4.6-6c-2.7-3.2-11.3-11.4-16.9-18.3
		V67C219.2,71.1,223.5,76,227.8,80.2z"/>
	<path d="M220.1-1.8c0.2-0.1,0.3-0.3,0.5-0.4h-4.7v4.8C216.8,1.3,218.1-0.1,220.1-1.8z"/>
	<path d="M258.4,9.1c3.8,2.3,6.5,4.1,13.4,7.4c8.1,3.8,15.8,4.8,16.9,4.3c0.4-1.2-6.7-5.2-16.6-9.7S257.6,0.8,257.2,0.5
		c-0.3-0.3-1-1.2-1.9-2.6h-10.1c0.8,0.8,1.6,1.8,2.6,2.9C250,3.1,254.5,6.9,258.4,9.1z"/>
	<path d="M419.2,55.6c-0.6-0.2-0.3,2.8,0.1,4.7c3.4,17.8-1.4,28-2.9,32.2c-0.8,2.4-5.1,11.5-9.5,20.1c-2.5,4.9-4.4,7.9-6.1,10.1
		c-1.3-1.9,0.4-7.8,1.5-10.4c2.7-6.3,8.3-16.3,11.8-25.4c4.5-11.5,5.1-21.5,3.3-20.1c-1.8,1.3-2.4,7.5-5.4,14.4
		c-3.4,8.1-9,17.4-11.2,21.2c-6.4,10.8-6.3,23.1-5.7,25.6c0.4,1.6,2.4,1.5,3,0.6c3.4-2.3,8.8-8.3,12.9-14.8
		c2.3-3.7,10.8-20.7,12.1-30.8c0.6-5,2.3-12.8-1.3-22.5C421.1,59.1,419.8,55.8,419.2,55.6z"/>
	<path d="M436.4,203.3c-7.7,4-18.1,9.6-23,14.6c-0.1,0.1-0.2,0.2-0.3,0.3h10.5c4-3.4,8.4-6.4,12.8-9V203.3z"/>
	<path d="M424.3,180.4c-4.4,4.7-6.4,9.1-7.2,12.8c-0.8,3.7-5.1,18.3-3.6,18.6c1.3,0.2,14.4-12.9,22.9-19V186
		c-4.7,2.8-7.6,5.7-10.9,9.6c-2.1,2.5-4.2,3.1-4.2,2.7c0.3-2.9,0.9-5.5,2-8c0.9-1.7,1.9-3.4,3-5.1c2.5-3.3,3-4.2,6.9-6.6
		c1-0.6,3-1.8,3.1-1.9v-6.6C432.7,172.8,428.4,176.1,424.3,180.4z"/>
	<path d="M436.4,214c-0.4,0.3-0.8,0.6-1.2,0.8c-1.5,1.1-3,2.2-4.4,3.3h5.6V214z"/>
	<path d="M434.7,24.8c-0.7-3.8-3.2-5.4-4.1-5.1c-6.1,2.6-7.1,19.3-7.3,26c-0.4,11.8,3,20.8,6.7,24.8c1.8,2,4.3,4.7,6.5,7.3v-7.1
		c-1.6-1.9-2.8-3.3-3.4-3.8c-3.2-2.9-4.9-7.3-4-8.1c0.3-0.3,3.3,3.4,7.4,8.3v-6.6c-0.9-1.1-1.6-2.1-2.3-3.1
		c-9.7-13.9-7.6-16.1-6.3-22.2s5-8.2,4.7-4.7c-1.3,12.1-1.6,13.7,1.7,22c0.5,1.3,1.3,2.7,2.3,4.1V45.9c-0.7-1.5-1-2.8-1.1-3.7
		C434.9,36.6,435.3,28.3,434.7,24.8z"/>
	<path d="M339.3,83.6c1.9-3.4,20.7-25,19.3-26.1c-1.3-1.2-21.4,17.3-24.6,20.8c-5.8,6.3-8,17-6.6,21.3c2.8,9.2,4.9,18.8,10.7,30.1
		c1.2,2.3,7,9.6,7.3,9c0.3-0.7-4.8-10.4-7-20.5C336.9,110.6,331.8,97.4,339.3,83.6z"/>
	<path d="M385.3,7L385.3,7c10,11.2,9.9,21.8,10,22.2c1,4.4,0.4,20-4.4,26.7S375.7,71,371.8,76.7c-5.4,7.9-5.5,12-5.8,25.3
		s0.5,22.1,3.3,28.1c2.8,6,6.8,10.6,8.1,11.5c1.2,1,6.6,7.2,1.7-2c-4.4-8.4-8.9-6.1-6.9-27.5s-0.5-11.8,2.4-23.5
		c2.9-11.6,14.9-23.3,16-24.5c4.8-5.8,8.3-10.3,9.1-18.1c0.9-7.8-0.1-13.9-2.2-23.6c-1.5-7.1-4.9-13.9-5.7-15.6
		c-1-2-4.8-5.7-8.4-9.2h-8.8C379,0.8,382.6,3.9,385.3,7z"/>
	<path d="M368.6,195.2c-1.6-4.2-3.8-9.9-4.9-8.7c-1,1.3,0.4,7.2,1.5,11c2.6,8.1-1.6,14.6,3.4,17.2c2.1,1.1,4.1,2.3,5.8,3.4h8.8
		c-3.3-3.1-6.6-5.9-7.6-6.9C371.8,207.8,370.9,201.5,368.6,195.2z"/>
	<path d="M350.7,217.3c-3.3-5.1-21.5-1.3-33.5,0.8h34.2C351,217.8,350.8,217.6,350.7,217.3z"/>
	<path d="M278.3,204.6c-6-7.2-11.2-13.2-14.8-19.2c-0.3-0.6-4.6-10.1-7.9-17.5c-1.6-4.7-2.9-9.3-2.6-12.6c0.6-9.2-0.2-18.4-0.3-22.9
		c-0.2-5.5,4.8-19.7,7-21.2c5.6-3.8,13.5-4.4,21.6-3.5s21.7,3.7,26.6,7.9c5,4.3,8.5,7.4,12.6,14.8c-2.5-2.3-11.2-9.5-16.2-12
		c-4.9-2.5-24.5-4.6-25.9-5c-6.5-1.8-8.8-2.3-14.1-0.3c-5.3,2-6.4,6.8-6.7,10.8c-0.3,4-1.7,28.9,0.8,38c2.6,9.1,11,24.2,20.9,36.9
		c7.1,9.1,13.3,11.8,15.3,10.2c-5-5.6-10.6-9.2-11.5-17.8c-0.5-5.1-12.4-15.6-16.4-30.5c-3.4-12.9-3.9-26.5-3.8-27.8
		c0.8-7.5,2.6-11.7,6-12.9c3.4-1.2,30-0.1,34.5,2.7c7.5,4.6,19.3,14,21.8,18.5c3.7,6.7,6.5,25.6,6.6,25.9c0.4,2.5,6,17.3,3.7,25.3
		c-1.6,5.8-7.3,6.1-13.1,7.2c-3.1,0.6-3.1,2.2-8,1.9c-4.9-0.2-11.9-7.8-18.2-15.7c-10.7-13.3-20-31.5-19.2-39.8
		c0.9-9.4,0.4-9-0.3-14.4c-0.4-2.9,4.7-2,9.5-0.9s11.6,3.3,16.2,5.1c12.5,4.8,22.2,31.8,22.9,36.7c0.8,4.9-0.2,13.1-1.8,16.2
		c-1.6,3.1-3.4,5-4.8,4.8s-1.3-0.7-2.3-1.9c-4.6-5.3-9.4-12.5-12.4-17.4c-3-5-6.6-7.3-10.7-13.8s-4.4-15-5.1-17.5
		c-0.2-0.7-0.4-2.4,0.4-2.8c0.7-0.4,8.3,3.4,10,4.9s2.2,2,3.5,3.3c6.8,8.3,11.2,21.8,10.6,24.8s-6.7-8.2-7.1-9.7
		c-0.6-2.8-8-12.9-9.9-16.2c-1.8-3.3-2.5,2.5-0.5,8.1c2.1,5.7,18.9,28.9,20.3,27.7c1.3-1.2,3.8-9,2.4-14.5
		c-1.9-7.8-3.8-17.6-21.4-30.3c-5.2-3.7-7.8-4.3-9-4s-7.1-1.6-3.6,7.5c1.7,6.7-0.3,16.9,2.8,21.5c1.9,5.5,6.5,9.8,10.2,13.2
		c5,4.5,13.2,14.7,13.9,15.5c1.8,2.3,3.9,5.8,7.3,5.7c4.2-0.2,7.3-1.6,10.1-5.4c2.7-3.7-0.4-26.3-0.7-27.7c-0.4-2.2-1-4.2-1.5-5.8
		c-1.1-4.5-2.6-8.7-4.8-11.5c-7.6-10-15.1-16.6-26.4-20.1c-11.3-3.5-25.1-3.6-26.1-2.3c-0.7,1-1.1,22.6,0,27.1
		c3.6,14.7,20.2,39,27.9,47.6c5.5,6.1,12.4,6.1,17.1,6s8.9-1.5,13.5-2s12.9-2.7,13.9-5.9c0.6-1.9-1.4-7.2-1.3-9.5
		c0.4-8-0.9-15.7-1.8-21.8c0,0-1.7-5.8-2.1-7.2c-2.8-12.4-8.3-26.5-10.5-30.8c-0.9-1.8-11.3-22.7-16.7-25.3
		c-7.7-3.7-45.1-3.6-50.8,1.3c-4.2,3.5-8.4,26.7-9.7,31.8c-2.3,8.8-5.6,28.2-4.1,31.7c0.4,0.9,4.9,1.9,9,8.6
		c2.1,4.6,5.7,13.1,10.8,21.6c2.7,5.1,5.5,9.9,7.6,12.6c3.7,4.9,6.6,5.6,8.8,7.3c0.1,0.1,0.2,0.1,0.3,0.2h13.3
		c-3.7-0.8-6.8-1.9-8.6-3C281.8,212.9,281,207.8,278.3,204.6z"/>
	<path d="M347.1,192.4c2.2,6.1,3.6,12,2.8,14.3c-0.8,2.3-10.7-1.2-17-0.8c-3.5,0.3-10.7,0.4-17.5,2.6c-8.9,2.8-18,2.5-17.4,4
		c1.1,2.6,37.3-3.7,52.1,0c14.8,3.7,0.8-16.7-0.3-25.9c-1-9.3-7.6-25.4-8.4-24.7s-0.9,4.4,0.2,8.8
		C342.9,174.9,345,186.3,347.1,192.4z"/>
	<path d="M238,164.6c0.6-1.3,1.2-3.4,1.6-5.5c0,0,0.9-9.4,1.1-14.1s5.6-18.9,6.4-21c0.6-1.6,1.5-6.2,0.7-6.3c-0.8-0.1-3.1,4.2-4,6.6
		c-1.6,4.9-5.1,10.5-6.6,15.5s-5.8,17.2-8.1,19.5c-3,3.1-3.7,3.8-8.3,7.1c-1.5,1.1-3.3,2.4-5.2,3.7v6.6c5.7-2.8,12.7-5.4,15-5.6
		C233.3,170.8,236.3,168.3,238,164.6z"/>
	<path d="M265,209.9c-8.2-14-19.5-32.1-22.3-33.3c-2.6-1.1-5.3,0.1-6.9,0.7c-9.4,3.3-15.5,5.9-20,8.6v6.8c1.5-1.1,2.9-1.9,4.1-2.5
		c7.6-3.5,16.9-7.8,16.9-6.4c0.1,3.3-7.9,12.4-14.8,16.1c-1.6,0.9-3.8,2-6.2,3.2v5.9c2.9-1.7,5.8-3.3,8.6-4.7
		c5.3-2.7,9.3-3.8,12.3-5.7s2.6-4.8,6.9-7.6c4.4-2.8,12.5,20.4,13.6,22.2c1,1.7,2.5,3.2,4.2,4.7h11.1C269,215,266.2,212,265,209.9z"
		/>
	<path d="M239.6,204.5c-0.1,0-0.1,0-0.2,0c-6.7,1.1-14.3,3.3-23.7,9.5v4.1h4.7c6.8-5.6,14.3-4.6,19.1-3c2.6,0.9,4.4,2,4.8,2.3
		c0.3,0.2,0.5,0.5,0.8,0.7h10.1C251.9,213.4,245,203.9,239.6,204.5z"/>
	<path d="M409.9,204.2c-0.6-7.5-0.3-13.6,4.2-21.5c3.5-6.1,14.2-14.6,22.4-20.7v-5.4c-7.5,5.7-19.6,14.7-21.9,16
		c-3.2,1.8-14.3,9.2-13,14.1c1.4,4.9,1.7,6.6,2.6,9.1c0.9,2.6-0.2,16.6-1.1,19c-1.2,3.4-2.2-9.1-3.2-13.2
		c-2.3-9.3-5.3-11.7-8.5-15.8c-1.2-1.6,1-3.1,1.8-4c5.9-6.3,18-11.7,27.6-18c5.5-3.6,11.2-7.7,15.6-12v-11.3c-2.1,4.7-5,8-7.6,9.6
		c-4.5,2.8-9.7,6.1-18.6,11s-17.3,10.3-19.2,11.7c-6.6,4.7-10.3,12.1-10.4,14.5c-0.5,6.5,10.5,8.6,15.9,22.5
		c0.5,1.3,0.9,5.1,0.9,8.5h9.4C408.5,212.5,410.1,207.2,409.9,204.2z"/>
	<path d="M379.1,196c-3.5-5.3-6.7-15.2-9-20c-2.8-5.9-4.3-12.9-7.5-16.2c-3.3-3.3-7.3-7.1-9.7-13.3c-1.8-4.8-2.9-1.9-2.2,2.7
		c0.8,4.5,5.1,10.8,9.1,17.5c1,1.7,1.8,9.5,4.6,14.8c1.7,3.2,10.6,20.8,17.2,29.1c1.9,2.4,4,5.1,6,7.7h6.8
		c-1.3-3.5-3.2-8.1-5.3-11.7C385.6,200.8,381.2,199.1,379.1,196z"/>
	<path d="M361.6,194.7c-0.4-5.3-0.5-11.5-1.2-15.4c-1.2-6.5-7.1-18-12.7-24.9c-1.2-1.5-5.7-7-9.3-12.9c-3.1-5.3-5.5-10.8-7.5-17.5
		c-2-6.8-9.1-26.5-11.8-31.1c-3.6-6.2-21.2-0.7-26.5,0.2c-5.3,0.9-19.1,3.2-18.9,4.3c0.1,0.6,16.2-0.9,18.7-0.7
		c6.5,0.4,19.1-2.1,21.6,0.2c2.4,2.3,3.8,7.5,7.2,14.1c2.9,5.7,4.5,9.4,7,15.3c2.4,5.8,9.8,23.7,11.3,25.5
		c0.4,0.4,7.6,13.2,11.5,23.2c1.8,4.5,3.2,8.9,4.4,12.9c1,3.6,3.8,10.9,4.5,17.6c0.5,5.3-0.6,9.9-0.3,12.8h7.5
		c-0.5-0.5-0.9-1.1-1.2-1.7C362.6,210.6,362,200,361.6,194.7z"/>
	<path d="M279.3,9.3c5.3,3.1,14.9,8.1,20.7,9c15,2.3,29.5-1.9,33.7-0.1c4.3,1.9,11.9,12.3,19,13.6c-2.8,2-10-0.2-17.4-5.3
		s-21.4-0.3-30.6,0.3c-9.2,0.5-27.5-1.5-37.3-4.4c-3-0.9-8.8-3.7-13.1-6.8C249,12,241.4,3.7,239.6,2.7c-3.8-1.9-7.9-3.5-8.3-2
		S234,3.5,238,7c0.5,0.5,1.1,0.9,1.6,1.4c5.5,4.6,6.7,10.8,18.6,17.4c11.9,6.6,42.4,11.6,53.2,8.5c10.8-3.1,41.2,1.5,41.3,2.6
		c-1.5,0.5-16.6,5.5-31,6c-12.6,0.5-24.7-3.3-26.6-4.6c-2.7-1.9-22.2-1.1-29.3-0.8c-4.1,0.2-8.2-3.3-17.2-7.9
		c-1.5-0.8-4.7-2.5-7.3-5.2l0,0c-2.5-2.8-6-10.7-6.6-9.8c-0.6,3,1,8.7,4,12.7c0.3,0.6,2.1,2.7,2.7,3.2l0,0
		c3.1,2.7,14.1,15.7,24.6,15.6c5.7-0.1,25.2-1.8,28.8,0.2c7.4,4.2,17.9,3.5,18.1,3.5c13.2-2.4,35.7-8.1,39.1-9
		c6-1.5,8.9-2.9,11.6-6.2c0.9-1.1-6.7-7.2-7.9-7.9c-1.2-0.7-8-2.4-10.7-5.8c-4.8-6-0.9-9.7-10.8-9.5c-6.5,0.1-19,2.1-31.8-0.3
		c-1.2-0.2-16.2-3.5-16.8-3.9c-4.5-2.5-9.1-5.9-12.9-9.2h-11.2c2.4,2,5.2,3.8,7.9,5.3C271.8,4.6,277.3,8.1,279.3,9.3z"/>
	<path d="M396.3,9.1c1.9,2.3,2.8,9.5,4.2,9c1.4-0.5,3.7-13.5,4.2-14.7c0.7-1.8,1.3-3.7,1.9-5.6h-9.4c0,2.6-0.3,4.9-0.9,5.4
		c-0.2,0.1-0.9-2.2-2.1-5.4h-6.8c0.9,1.2,1.8,2.4,2.6,3.5C392.7,4.6,394.3,6.9,396.3,9.1z"/>
	<path d="M371.3,7L371.3,7c0.9,0.5,1.8,0.9,2.7,1.3c1.6,0.8,5.6,1.6,9,5c0.7,0.8,4.7,8.2,5.1,8.3c1.4,0.2-0.1-7.4-6.9-14.6l0,0
		c-3.8-2.8-8.5-5-10.3-6.1c-1.2-0.7-2.7-1.8-3.9-3.1h-7.5c0.1,0.9,0.3,1.6,0.8,2.1C362.2,2,367.2,4.9,371.3,7z"/>
	<path d="M402.3,35.1c-0.2,7.3,0.8,13.3-1.3,20.5c-1.6,5.3-5.5,12.6-7.9,14.9c-5.4,5.6-14.6,11.7-15.1,29.1s0.3,30.1,2.8,36
		c0.4,0.9,2.1,2.5,2.3,1.3c0.4-2.2-0.7-8.7-0.8-10.9c-0.3-11-1-14.3,2.3-29.4c1.3-6.1,3.6-7.9,7-14c5-9.1,9.6-14.9,11.6-17.7
		c5.8-8.6,4.2-17.1,4.2-21.3c0-5.6,0.5-15.2,2.5-23.7c1.1-4.6,3.2-9.8,5.1-12.8c1.9-2.9,3.1-3.9,4.9-5.8c1.2-1.2,2.4-2.3,3.6-3.4
		H413c-2,2.3-4,5.4-5.5,9.1C404.4,14.3,402.5,24,402.3,35.1z"/>
	<path d="M421.3,7c-1.7,2-2.7,3.4-2.9,3.8c-4.4,8.8-6.3,27.4-5.8,35.5c0.2,4,2.2,15-7.6,25c-8.8,9-13.9,16-16.4,32
		c-0.6,3.8-1.1,22-0.6,29.2c0.3,3.6,0.8,4.9,1.2,5.5c1.7,2.3,6.7-0.5,14.7-4.8c10.5-5.5,15.3-11.2,20.1-27.7
		c0.4-1.3,4.6-17.7,4.9-19.4c0.3,3.6-0.6,22.7-1.5,26.2c-4.2,14.8-14.2,20.6-19.6,24.8c-6.3,4.9-19.4,9.4-28.6,9
		c-2.4-0.1-5.8-1.9-10.2-8.1c-1.5-2.1-4.9-12-4.7-18.1c0.2-6.3-1.2-23.4-2.4-22.4S354,108.8,352,116c-3.1,8.7-0.2,21.9,4.4,29.5
		s10.9,9.9,12,16.5c1,6.6,9.4,16.4,10,15.4c0.1-0.1,0.2-0.2,0.3-0.3c2.9-3.3,13.3-13.6,21.1-17.8c7.9-4.3,26.3-11,30.6-15.6
		c2.6-2.7,2.7-7.2,3.1-11.6c0.3-3,1.6-7.4,0.3-6.2c-1.3,1.2-4.1,12.2-10.3,14.7c-6.2,2.5-21,12.8-35.4,16.7c-4.2,1.1-7.5,6.1-11.2,9
		c-1.6,2.4-6-15.7-10.6-18.4c-4.7-2.8-13.1-17.1-9.9-26.1c0.7-1.9,3.2-7.3,4.4-9.3c0.1,1.8-0.5,15.6,0.8,19.9
		c3.1,10.3,10.1,14.2,11.5,16.6c1.2,1.9,4.1,10.2,5.5,8.6c3.2-3.6,9.4-6.4,16.4-8.2s15-6.7,21.9-10.6c6.9-4,12.5-9.6,15.3-18.7
		c2.9-9.1,2.9-18.3,1.9-27.3c-1.5-15.4-5.4-19.7-6.2-18.4c-0.8,1.2-0.7,9.4-2.7,13.7c-0.5,1.1-8,22.6-10.7,28.5
		c-3.1,6.6-12.1,13.4-17.1,15.3c-4.7,1.8-5.7-3.5-5.8-6.4c-0.4-8.3,1.6-26.6,6.9-33.5s5.6-6.4,9.5-13.1c3.8-6.4,7.8-19,9-25.9
		c1.6-8.9-1.5-29.6,11-38c5.1-3.4,5.1-5.3,6-7.9c0.4-1.2,1-2.6,2.4-4.4v-4.9h-5.6C426.7,1.1,423.5,4.5,421.3,7z"/>
	<path d="M323.4,2.6c6.1-1.1,17.5-0.5,22.1,4.4c0.4,0.4,0.7,0.8,0.9,1.3c5.5,12.5,12,13,16.6,15.6c4.7,2.7,10.7,8.4,11.8,13.9
		c1.1,5.5-1.2,6.1-2.2,8.7c-0.6,1.6-27.5,34.4-28.4,36.8c-2.2,5.5-2.3,5.6-3.5,11.5c-2.6,12.7,6,32.3,6.9,31.9s-1.6-10.8-1.4-19
		c0.2-5.8,2.3-10.1,2.7-15.2c0.4-5.1,8.5-21,17.4-30.2c2.7-2.8,16.8-16.7,13.5-28.4c-4-13.8-20.6-19.3-21.4-22.6
		c1.1,0.6,2.4,1.3,3.6,2c1.6,0.9,3.2,1.8,4.7,2.3c2.6,0.7,15.5,7.8,17.5,16.3c2.1,8.8-3.3,19.1-4,20.4c-0.8,1.4-1.6,2.7-2.4,3.6l0,0
		c-2.9,3.3-14.8,16.8-19.6,24.8s-4.2,15.9-4.7,22.8c-0.2,2.4,4-8,7.4-15.4c2.1-4.5,3.7-6.4,4.5-7.8c0.5-0.7,0.9-1.5,1.3-2.3
		c6.8-11.5,13.3-17,17.5-20.6c2.5-1.8,7.5-7.8,7.2-19.1c-0.1-2.2-2.3-13-10.4-20c-0.3-0.2-9-4.7-17.1-10.2
		c-5.5-3.7-10.6-8.1-12.5-10h-34.2c-2.3,0.4-4.3,0.7-6,0.9c-6,0.7-12.1,0.2-17-0.9h-13.3C287.7,2.7,309.6,5,323.4,2.6z"/>
</g>
<g class="st0">
	<path d="M2.7,361.6c2.1-5,1.9-14.3,1.2-20.5c-0.6-4.4-4.4-18.2-5.6-20.5c-0.8-1.5-0.6,1.9-0.2,6.6c0.5,5.6,0.8,10.8,1,13.3
		c0.6,6.9-1.4,14.9-3.5,19.6v11.3C-1.2,368.2,1.3,365,2.7,361.6z"/>
	<path d="M11.7,365.5c1.7-4.7,2.5-7.8,2.4-14c-0.1-4.7-2.2-10.7-3.1-15.4c-2.2-11-6.6-22.1-13.5-31.9c-1.2-1.9-1.5,1.8,0.7,5.5
		c2.9,4.8,13,29.1,9.5,46.3c-1,5.2-2.9,12.9-6.3,15.7c-0.7,0.6-2.9,2.3-5.8,4.5v5.4c4.1-3.1,7.6-5.6,9.2-6.9
		C6.6,373.2,10.7,368.2,11.7,365.5z"/>
	<path d="M74.8,272.6c-4.2-3.6-7-4.3-15.3-3.3s-27.5,0.5-34.2-4.2c-6.8-4.8-10.1-7.4-12.8-13.3s-1.5-11.9-2.1-17.3
		c-0.2-1.6-0.8-5.2-1.4-7.8c-0.2-1.1-0.4-2-0.6-2.5c-0.8-2.4-1.8-5.2-3.3-5.4c-3.2-0.3-5.4,2.9-6.7,7.9l0,0
		c-1.5,5.7-1.9,13.7-1.6,21.2c0.4,8,3.7,14.3,5.4,18c1.4,3.2,4.6,9.9,13.3,15.1c0.4,0.2,2.2,1,3.8,1.5c7.9,2.3,23.5,3,31.3,2.3
		c4.5-0.5,12.4-1.4,10.8-2.6c-0.6-0.4-4.8,0.2-9.2-0.1c-7.8-0.5-17.8-1.7-20.7-2.2c-4.5-0.8-10.9-2.2-15.4-6.4
		c-4.4-4.3-11.1-10.2-13-19.6c-1.1-5.3-3.4-19.7,2.1-22c1.3-0.5,0.6,13.3,2.3,20.4c1.7,7,6.3,14.7,11.9,17.5s17,5.6,23.6,6.6
		c7.6,1.1,11.2,1.6,22.4,1.8c11.1,0.3,25.2-1.7,24.5-4.4C89.7,273.3,79,276.2,74.8,272.6z"/>
	<path d="M9.4,320.4c2.1,6.9,2.8,9.9,4.3,15.8s2.7,15,3.5,14.1c-0.1-2.5,0.6-5,1.4-6.8c0.1-0.2,0.4-0.9,0.8-1.7
		c0.5-1.1,10.5-19.9,27.1-26.9c19.8-8.3,49.7-11.7,53.8-12.2c7.6-0.9,21.4-17.4,29.4-24c3.3-2.8,12.2-8.3,16.9-13.4
		c4.8-5.2,3.5-12,2.2-11.6c0,0-0.7,1-1.8,2.5c-1.9,2.2-5.6,5.6-11.8,8.5c-8.6,2.9-14.7,1.1-28,8c-12.9,6.7-51.6,15-65.9,15.6
		c-0.7,0-1.2,0.1-1.4,0.1c-5.6,0-13.2-1-20.5-3.5l0,0c-1.2-0.4-2.3-0.8-3.4-1.3c-2.9-1.5-7.1-5.8-7.4-5.3c-0.3,0.5,2.7,6,7.8,8.7
		c0.8,0.5,1.8,1.1,3,1.6l0,0c3.2,1.5,7.1,3,8.3,3.3c4.6,1.3,10.7,1.6,12,1.6c4.1,0.1,31.4-4.3,38.6-3.9c5.3,0.3,15.4-0.7,23.5-3.7
		c11.2-4.2,20.2-10.9,22.4-11.5c0,1.1-12.3,15.8-23.2,19.5c-11,3.6-24.5,2.9-41.3,7c-5.4,1.3-11.8,5.7-16.1,8.1
		c-8.5,4.7-14.9,8.8-18.4,12.5c-2.1,2.2-4.1,5.4-5.7,7.7c-1.1,1.5-2.1,2.6-2.8,2.6c-1.5-0.1-0.7-12.8-5.9-21.1
		c-4.6-7-11.1-15.4-15.2-20.3v7.1c3.1,3.5,5.8,6.9,6.6,7.8C3.2,306.6,7.3,313.5,9.4,320.4z"/>
	<path d="M19.4,302.6L19.4,302.6c1.7,1.5,3.4,2.4,4.6,2.8c5,1.8,17.8,0.6,24.7-4.4c8.7-5.3,30.8-5.7,30.4-7.1s-15.2-1.7-22.1-0.8
		c-9.9,1.4-18.6,7.2-30.9,4.2c-1.2-0.3-2.5-0.8-3.7-1.6c-0.6-0.4-1.9-1.3-3.1-2.4l0,0c-1-0.8-1.9-1.8-2.5-2.2
		c-8.3-4.7-18-18.1-21.2-25.6v10.6c5.3,8.1,16.3,17.8,20.4,22.9C17,300.2,18.2,301.5,19.4,302.6z"/>
	<path d="M7.5,299.9c10.6,10.5,9.2,21.3,11.1,21.4c0.2,0,0.4-0.1,0.7-0.2l0,0c2.2-1,4.6-5.5,7.4-7.5s15.2-5.5,14.2-6.2
		s-14.5,2.8-18.3,1.8c-0.8-0.2-1.9-0.9-3.3-2.2l0,0c-0.7-0.7-1.4-1.5-2.2-2.5c-1.2-1.7-2.7-3.7-4.6-6c-2.7-3.2-11.3-11.4-16.9-18.3
		v6.5C-1,290.8,3.3,295.7,7.5,299.9z"/>
	<path d="M-0.2,217.9c0.2-0.1,0.3-0.3,0.5-0.4h-4.7v4.8C-3.5,221-2.1,219.6-0.2,217.9z"/>
	<path d="M38.1,228.8c3.8,2.3,6.5,4.1,13.4,7.4c8.1,3.8,15.8,4.8,16.9,4.3c0.4-1.2-6.7-5.2-16.6-9.7S37.4,220.4,37,220.1
		c-0.3-0.3-1-1.2-1.9-2.6H25c0.8,0.8,1.6,1.8,2.6,2.9C29.7,222.8,34.3,226.6,38.1,228.8z"/>
	<path d="M198.9,275.3c-0.6-0.2-0.3,2.8,0.1,4.7c3.4,17.8-1.4,28-2.9,32.2c-0.8,2.4-5.1,11.5-9.5,20.1c-2.5,4.9-4.4,7.9-6.1,10.1
		c-1.3-1.9,0.4-7.8,1.5-10.4c2.7-6.3,8.3-16.3,11.8-25.4c4.5-11.5,5.1-21.5,3.3-20.1c-1.8,1.3-2.4,7.5-5.4,14.4
		c-3.4,8.1-9,17.4-11.2,21.2c-6.4,10.8-6.3,23.1-5.7,25.6c0.4,1.6,2.4,1.5,3,0.6c3.4-2.3,8.8-8.3,12.9-14.8
		c2.3-3.7,10.8-20.7,12.1-30.8c0.6-5,2.3-12.8-1.3-22.5C200.8,278.8,199.5,275.5,198.9,275.3z"/>
	<path d="M216.2,423c-7.7,4-18.1,9.6-23,14.6c-0.1,0.1-0.2,0.2-0.3,0.3h10.5c4-3.4,8.4-6.4,12.8-9V423z"/>
	<path d="M204,400.1c-4.4,4.7-6.4,9.1-7.2,12.8c-0.8,3.7-5.1,18.3-3.6,18.6c1.3,0.2,14.4-12.9,22.9-19v-6.8
		c-4.7,2.8-7.6,5.7-10.9,9.6c-2.1,2.5-4.2,3.1-4.2,2.7c0.3-2.9,0.9-5.5,2-8c0.9-1.7,1.9-3.4,3-5.1c2.5-3.3,3-4.2,6.9-6.6
		c1-0.6,3-1.8,3.1-1.9v-6.6C212.5,392.5,208.1,395.8,204,400.1z"/>
	<path d="M216.2,433.7c-0.4,0.3-0.8,0.6-1.2,0.8c-1.5,1.1-3,2.2-4.4,3.3h5.6L216.2,433.7L216.2,433.7z"/>
	<path d="M214.5,244.5c-0.7-3.8-3.2-5.4-4.1-5.1c-6.1,2.6-7.1,19.3-7.3,26c-0.4,11.8,3,20.8,6.7,24.8c1.8,2,4.3,4.7,6.5,7.3v-7.1
		c-1.6-1.9-2.8-3.3-3.4-3.8c-3.2-2.9-4.9-7.3-4-8.1c0.3-0.3,3.3,3.4,7.4,8.3v-6.6c-0.9-1.1-1.6-2.1-2.3-3.1
		c-9.7-13.9-7.6-16.1-6.3-22.2s5-8.2,4.7-4.7c-1.3,12.1-1.6,13.7,1.7,22c0.5,1.3,1.3,2.7,2.3,4.1v-10.7c-0.7-1.5-1-2.8-1.1-3.7
		C214.7,256.3,215.1,248,214.5,244.5z"/>
	<path d="M119.1,303.3c1.9-3.4,20.7-25,19.3-26.1S117,294.5,113.8,298c-5.8,6.3-8,17-6.6,21.3c2.8,9.2,4.9,18.8,10.7,30.1
		c1.2,2.3,7,9.6,7.3,9c0.3-0.7-4.8-10.4-7-20.5C116.7,330.3,111.6,317.1,119.1,303.3z"/>
	<path d="M165.1,226.7L165.1,226.7c10,11.2,9.9,21.8,10,22.2c1,4.4,0.4,20-4.4,26.7c-4.8,6.7-15.1,15.1-19.1,20.8
		c-5.4,7.9-5.5,12-5.8,25.3s0.5,22.1,3.3,28.1s6.8,10.6,8.1,11.5c1.2,1,6.6,7.2,1.7-2c-4.4-8.4-8.9-6.1-6.9-27.5s-0.5-11.8,2.4-23.5
		c2.9-11.6,14.9-23.3,16-24.5c4.8-5.8,8.3-10.3,9.1-18.1c0.9-7.8-0.1-13.9-2.2-23.6c-1.5-7.1-4.9-13.9-5.7-15.6
		c-1-2-4.8-5.7-8.4-9.2h-8.8C158.8,220.5,162.3,223.6,165.1,226.7z"/>
	<path d="M148.3,414.9c-1.6-4.2-3.8-9.9-4.9-8.7c-1,1.3,0.4,7.2,1.5,11c2.6,8.1-1.6,14.6,3.4,17.2c2.1,1.1,4.1,2.3,5.8,3.4h8.8
		c-3.3-3.1-6.6-5.9-7.6-6.9C151.6,427.5,150.7,421.2,148.3,414.9z"/>
	<path d="M130.4,437c-3.3-5.1-21.5-1.3-33.5,0.8h34.2C130.8,437.5,130.6,437.3,130.4,437z"/>
	<path d="M58.1,424.3c-6-7.2-11.2-13.2-14.8-19.2c-0.3-0.6-4.6-10.1-7.9-17.5c-1.6-4.7-2.9-9.3-2.6-12.6c0.6-9.2-0.2-18.4-0.3-22.9
		c-0.2-5.5,4.8-19.7,7-21.2c5.6-3.8,13.5-4.4,21.6-3.5s21.7,3.7,26.6,7.9c5,4.3,8.5,7.4,12.6,14.8c-2.5-2.3-11.2-9.5-16.2-12
		c-4.9-2.5-24.5-4.6-25.9-5c-6.5-1.8-8.8-2.3-14.1-0.3s-6.4,6.8-6.7,10.8s-1.7,28.9,0.8,38c2.6,9.1,11,24.2,20.9,36.9
		c7.1,9.1,13.3,11.8,15.3,10.2c-5-5.6-10.6-9.2-11.5-17.8c-0.5-5.1-12.4-15.6-16.4-30.5c-3.4-12.9-3.9-26.5-3.8-27.8
		c0.8-7.5,2.6-11.7,6-12.9c3.4-1.2,30-0.1,34.5,2.7c7.5,4.6,19.3,14,21.8,18.5c3.7,6.7,6.5,25.6,6.6,25.9c0.4,2.5,6,17.3,3.7,25.3
		c-1.6,5.8-7.3,6.1-13.1,7.2c-3.1,0.6-3.1,2.2-8,1.9c-4.9-0.2-11.9-7.8-18.2-15.7c-10.7-13.3-20-31.5-19.2-39.8
		c0.9-9.4,0.4-9-0.3-14.4c-0.4-2.9,4.7-2,9.5-0.9s11.6,3.3,16.2,5.1c12.5,4.8,22.2,31.8,22.9,36.7c0.8,4.9-0.2,13.1-1.8,16.2
		c-1.6,3.1-3.4,5-4.8,4.8s-1.3-0.7-2.3-1.9c-4.6-5.3-9.4-12.5-12.4-17.4c-3-5-6.6-7.3-10.7-13.8s-4.4-15-5.1-17.5
		c-0.2-0.7-0.4-2.4,0.4-2.8c0.7-0.4,8.3,3.4,10,4.9s2.2,2,3.5,3.3c6.8,8.3,11.2,21.8,10.6,24.8s-6.7-8.2-7.1-9.7
		c-0.6-2.8-8-12.9-9.9-16.2c-1.8-3.3-2.5,2.5-0.5,8.1c2.1,5.7,18.9,28.9,20.3,27.7c1.3-1.2,3.8-9,2.4-14.5
		c-1.9-7.8-3.8-17.6-21.4-30.3c-5.2-3.7-7.8-4.3-9-4s-7.1-1.6-3.6,7.5c1.7,6.7-0.3,16.9,2.8,21.5c1.9,5.5,6.5,9.8,10.2,13.2
		c5,4.5,13.2,14.7,13.9,15.5c1.8,2.3,3.9,5.8,7.3,5.7c4.2-0.2,7.3-1.6,10.1-5.4c2.7-3.7-0.4-26.3-0.7-27.7c-0.4-2.2-1-4.2-1.5-5.8
		c-1.1-4.5-2.6-8.7-4.8-11.5c-7.6-10-15.1-16.6-26.4-20.1s-25.1-3.6-26.1-2.3c-0.7,1-1.1,22.6,0,27.1c3.6,14.7,20.2,39,27.9,47.6
		c5.5,6.1,12.4,6.1,17.1,6s8.9-1.5,13.5-2s12.9-2.7,13.9-5.9c0.6-1.9-1.4-7.2-1.3-9.5c0.4-8-0.9-15.7-1.8-21.8c0,0-1.7-5.8-2.1-7.2
		c-2.8-12.4-8.3-26.5-10.5-30.8c-0.9-1.8-11.3-22.7-16.7-25.3c-7.7-3.7-45.1-3.6-50.8,1.3c-4.2,3.5-8.4,26.7-9.7,31.8
		c-2.3,8.8-5.6,28.2-4.1,31.7c0.4,0.9,4.9,1.9,9,8.6c2.1,4.6,5.7,13.1,10.8,21.6c2.7,5.1,5.5,9.9,7.6,12.6c3.7,4.9,6.6,5.6,8.8,7.3
		c0.1,0.1,0.2,0.1,0.3,0.2h13.3c-3.7-0.8-6.8-1.9-8.6-3C61.6,432.6,60.8,427.5,58.1,424.3z"/>
	<path d="M126.9,412.1c2.2,6.1,3.6,12,2.8,14.3s-10.7-1.2-17-0.8c-3.5,0.3-10.7,0.4-17.5,2.6c-8.9,2.8-18,2.5-17.4,4
		c1.1,2.6,37.3-3.7,52.1,0s0.8-16.7-0.3-25.9c-1-9.3-7.6-25.4-8.4-24.7c-0.8,0.7-0.9,4.4,0.2,8.8C122.7,394.6,124.7,406,126.9,412.1
		z"/>
	<path d="M17.7,384.3c0.6-1.3,1.2-3.4,1.6-5.5c0,0,0.9-9.4,1.1-14.1s5.6-18.9,6.4-21c0.6-1.6,1.5-6.2,0.7-6.3s-3.1,4.2-4,6.6
		c-1.6,4.9-5.1,10.5-6.6,15.5S11.3,376.7,9,379c-3,3.1-3.7,3.8-8.3,7.1c-1.5,1.1-3.3,2.4-5.2,3.7v6.6c5.7-2.8,12.7-5.4,15-5.6
		C13.1,390.5,16,388,17.7,384.3z"/>
	<path d="M44.8,429.6c-8.2-14-19.5-32.1-22.3-33.3c-2.6-1.1-5.3,0.1-6.9,0.7c-9.4,3.3-15.5,5.9-20,8.6v6.8c1.5-1.1,2.9-1.9,4.1-2.5
		c7.6-3.5,16.9-7.8,16.9-6.4c0.1,3.3-7.9,12.4-14.8,16.1c-1.6,0.9-3.8,2-6.2,3.2v5.9c2.9-1.7,5.8-3.3,8.6-4.7
		c5.3-2.7,9.3-3.8,12.3-5.7s2.6-4.8,6.9-7.6c4.4-2.8,12.5,20.4,13.6,22.2c1,1.7,2.5,3.2,4.2,4.7h11.1
		C48.7,434.7,45.9,431.7,44.8,429.6z"/>
	<path d="M19.4,424.2c-0.1,0-0.1,0-0.2,0c-6.7,1.1-14.3,3.3-23.7,9.5v4.1h4.7c6.8-5.6,14.3-4.6,19.1-3c2.6,0.9,4.4,2,4.8,2.3
		c0.3,0.2,0.5,0.5,0.8,0.7H35C31.6,433.1,24.8,423.6,19.4,424.2z"/>
	<path d="M189.6,423.9c-0.6-7.5-0.3-13.6,4.2-21.5c3.5-6.1,14.2-14.6,22.4-20.7v-5.4c-7.5,5.7-19.6,14.7-21.9,16
		c-3.2,1.8-14.3,9.2-13,14.1c1.4,4.9,1.7,6.6,2.6,9.1c0.9,2.6-0.2,16.6-1.1,19c-1.2,3.4-2.2-9.1-3.2-13.2
		c-2.3-9.3-5.3-11.7-8.5-15.8c-1.2-1.6,1-3.1,1.8-4c5.9-6.3,18-11.7,27.6-18c5.5-3.6,11.2-7.7,15.6-12v-11.3c-2.1,4.7-5,8-7.6,9.6
		c-4.5,2.8-9.7,6.1-18.6,11s-17.3,10.3-19.2,11.7c-6.6,4.7-10.3,12.1-10.4,14.5c-0.5,6.5,10.5,8.6,15.9,22.5
		c0.5,1.3,0.9,5.1,0.9,8.5h9.4C188.3,432.2,189.9,426.9,189.6,423.9z"/>
	<path d="M158.8,415.7c-3.5-5.3-6.7-15.2-9-20c-2.8-5.9-4.3-12.9-7.5-16.2c-3.2-3.3-7.3-7.1-9.7-13.3c-1.8-4.8-2.9-1.9-2.2,2.7
		c0.8,4.5,5.1,10.8,9.1,17.5c1,1.7,1.8,9.5,4.6,14.8c1.7,3.2,10.6,20.8,17.2,29.1c1.9,2.4,4,5.1,6,7.7h6.8
		c-1.3-3.5-3.2-8.1-5.3-11.7C165.4,420.5,160.9,418.8,158.8,415.7z"/>
	<path d="M141.4,414.4c-0.4-5.3-0.5-11.5-1.2-15.4c-1.2-6.5-7.1-18-12.7-24.9c-1.2-1.5-5.7-7-9.3-12.9c-3.1-5.3-5.5-10.8-7.5-17.5
		c-2-6.8-9.1-26.5-11.8-31.1c-3.6-6.2-21.2-0.7-26.5,0.2c-5.3,0.9-19.1,3.2-18.9,4.3c0.1,0.6,16.2-0.9,18.7-0.7
		c6.5,0.4,19.1-2.1,21.6,0.2c2.4,2.3,3.8,7.5,7.2,14.1c2.9,5.7,4.5,9.4,7,15.3c2.4,5.8,9.8,23.7,11.3,25.5
		c0.4,0.4,7.6,13.2,11.5,23.2c1.8,4.5,3.2,8.9,4.4,12.9c1,3.6,3.8,10.9,4.5,17.6c0.5,5.3-0.6,9.9-0.3,12.8h7.5
		c-0.5-0.5-0.9-1.1-1.2-1.7C142.3,430.3,141.8,419.7,141.4,414.4z"/>
	<path d="M59.1,229c5.3,3.1,14.9,8.1,20.7,9c15,2.3,29.5-1.9,33.7-0.1c4.3,1.9,11.9,12.3,19,13.6c-2.8,2-10-0.2-17.4-5.3
		s-21.4-0.3-30.6,0.3c-9.2,0.5-27.5-1.5-37.3-4.4c-3-0.9-8.8-3.7-13.1-6.8c-5.3-3.7-12.9-12-14.7-12.9c-3.8-1.9-7.9-3.5-8.3-2
		c-0.5,1.5,2.7,2.8,6.7,6.3c0.5,0.5,1.1,0.9,1.6,1.4c5.5,4.6,6.6,10.8,18.5,17.4c11.9,6.6,42.4,11.6,53.2,8.5s41.2,1.5,41.3,2.6
		c-1.5,0.5-16.6,5.5-31,6c-12.6,0.5-24.7-3.3-26.6-4.6c-2.7-1.9-22.2-1.1-29.3-0.8c-4.1,0.2-8.2-3.3-17.2-7.9
		c-1.5-0.8-4.7-2.5-7.3-5.2l0,0c-2.5-2.8-6-10.7-6.6-9.8c-0.6,3,1,8.7,4,12.7c0.3,0.6,2.1,2.7,2.7,3.2l0,0
		c3.1,2.7,14.1,15.7,24.6,15.6c5.7-0.1,25.2-1.8,28.8,0.2c7.4,4.2,17.9,3.5,18.1,3.5c13.2-2.4,35.7-8.1,39.1-9
		c6-1.5,8.9-2.9,11.6-6.2c0.9-1.1-6.7-7.2-7.9-7.9s-8-2.4-10.7-5.8c-4.8-6-0.9-9.7-10.8-9.5c-6.5,0.1-19,2.1-31.8-0.3
		c-1.2-0.2-16.2-3.5-16.8-3.9c-4.5-2.5-9.1-6-12.9-9.2H41.2c2.4,2,5.2,3.8,7.9,5.3C51.6,224.3,57,227.8,59.1,229z"/>
	<path d="M176,228.8c1.9,2.3,2.8,9.5,4.2,9s3.7-13.5,4.2-14.7c0.7-1.8,1.3-3.7,1.9-5.6H177c0,2.6-0.3,4.9-0.9,5.4
		c-0.1,0.1-0.9-2.2-2.1-5.4h-6.8c0.9,1.2,1.8,2.4,2.6,3.5C172.4,224.3,174.1,226.6,176,228.8z"/>
	<path d="M151.1,226.7L151.1,226.7c0.9,0.5,1.8,0.9,2.7,1.3c1.6,0.8,5.6,1.6,9,5c0.7,0.8,4.7,8.2,5.1,8.3c1.4,0.2-0.1-7.4-6.9-14.6
		l0,0c-3.8-2.8-8.5-5-10.3-6.1c-1.2-0.7-2.7-1.8-3.9-3.1h-7.5c0.1,0.9,0.3,1.6,0.8,2.1C142,221.7,146.9,224.6,151.1,226.7z"/>
	<path d="M182,254.8c-0.2,7.3,0.8,13.3-1.3,20.5c-1.6,5.3-5.5,12.6-7.9,14.9c-5.4,5.6-14.6,11.7-15.1,29.1
		c-0.5,17.3,0.3,30.1,2.8,36c0.4,0.9,2.1,2.5,2.3,1.3c0.4-2.2-0.7-8.7-0.8-10.9c-0.3-11-1-14.3,2.3-29.4c1.3-6.1,3.6-7.9,7-14
		c5-9.1,9.6-14.9,11.6-17.7c5.8-8.6,4.2-17.1,4.2-21.3c0-5.6,0.5-15.2,2.5-23.7c1.1-4.6,3.2-9.8,5.1-12.8c1.9-2.9,3.1-3.9,4.9-5.8
		c1.2-1.2,2.4-2.3,3.6-3.4h-10.5c-2.2,2.3-4.1,5.4-5.7,9.2C184.1,234,182.3,243.7,182,254.8z"/>
	<path d="M201.1,226.7c-1.7,2-2.7,3.4-2.9,3.8c-4.4,8.8-6.3,27.4-5.8,35.5c0.2,4,2.2,15-7.6,25c-8.8,9-13.9,16-16.4,32
		c-0.6,3.8-1.1,22-0.6,29.2c0.3,3.6,0.8,4.9,1.2,5.5c1.7,2.3,6.7-0.5,14.7-4.8c10.5-5.5,15.3-11.2,20.1-27.7
		c0.4-1.3,4.6-17.7,4.9-19.4c0.3,3.6-0.6,22.7-1.5,26.2c-4.2,14.8-14.2,20.6-19.6,24.8c-6.3,4.9-19.4,9.4-28.6,9
		c-2.4-0.1-5.8-1.9-10.2-8.1c-1.5-2.1-4.9-12-4.7-18.1c0.2-6.3-1.2-23.4-2.4-22.4c-1.2,0.9-7.8,11.5-9.9,18.6
		c-3.1,8.7-0.2,21.9,4.4,29.5c4.6,7.6,10.9,9.9,12,16.5c1,6.6,9.4,16.4,10,15.4c0.1-0.1,0.2-0.2,0.3-0.3
		c2.9-3.3,13.3-13.6,21.1-17.8c7.9-4.3,26.3-11,30.6-15.6c2.6-2.7,2.7-7.2,3.1-11.6c0.3-3,1.6-7.4,0.3-6.2
		c-1.3,1.2-4.1,12.2-10.3,14.7s-21,12.8-35.4,16.7c-4.2,1.1-7.5,6.1-11.2,9c-1.6,2.4-6-15.7-10.6-18.4c-4.7-2.8-13.1-17.1-9.9-26.1
		c0.7-1.9,3.2-7.3,4.4-9.3c0.1,1.8-0.5,15.6,0.8,19.9c3.1,10.3,10.1,14.2,11.5,16.6c1.2,1.9,4.1,10.2,5.5,8.6
		c3.2-3.6,9.4-6.4,16.4-8.2c7-1.8,15-6.7,21.9-10.6c6.9-4,12.5-9.6,15.3-18.7c2.9-9.1,2.9-18.3,1.9-27.3
		c-1.5-15.4-5.4-19.7-6.2-18.4c-0.8,1.2-0.7,9.4-2.7,13.7c-0.5,1.1-8,22.6-10.7,28.5c-3.1,6.6-12.1,13.4-17.1,15.3
		c-4.7,1.8-5.7-3.5-5.8-6.4c-0.4-8.3,1.6-26.6,6.9-33.5c5.3-6.9,5.6-6.4,9.5-13.1c3.8-6.4,7.8-19,9-25.9c1.6-8.9-1.5-29.6,11-38
		c5.1-3.4,5.1-5.3,6-7.9c0.4-1.2,1-2.6,2.4-4.4v-4.9h-5.6C206.5,220.8,203.2,224.2,201.1,226.7z"/>
	<path d="M103.2,222.3c6.1-1.1,17.5-0.5,22.1,4.4c0.4,0.4,0.7,0.8,0.9,1.3c5.5,12.5,12,13,16.6,15.6c4.7,2.7,10.7,8.4,11.8,13.9
		s-1.2,6.1-2.2,8.7c-0.6,1.6-27.5,34.4-28.4,36.8c-2.2,5.5-2.3,5.6-3.5,11.5c-2.6,12.7,6,32.3,6.9,31.9c0.9-0.4-1.6-10.8-1.4-19
		c0.2-5.8,2.3-10.1,2.7-15.2c0.4-5.1,8.5-21,17.4-30.2c2.7-2.8,16.8-16.7,13.5-28.4c-4-13.8-20.6-19.3-21.4-22.6
		c1.1,0.6,2.4,1.3,3.6,2c1.6,0.9,3.2,1.8,4.7,2.3c2.6,0.7,15.5,7.8,17.5,16.3c2.1,8.8-3.3,19.1-4,20.4c-0.8,1.4-1.6,2.7-2.4,3.6l0,0
		c-2.9,3.3-14.8,16.8-19.6,24.8s-4.2,15.9-4.7,22.8c-0.2,2.4,4-8,7.4-15.4c2.1-4.5,3.7-6.4,4.5-7.8c0.5-0.7,0.9-1.5,1.3-2.3
		c6.8-11.5,13.3-17,17.5-20.6c2.5-1.8,7.5-7.8,7.2-19.1c-0.1-2.2-2.3-13-10.4-20c-0.3-0.2-9-4.7-17.1-10.2
		c-5.5-3.7-10.6-8.1-12.5-10H96.9c-2.3,0.4-4.3,0.7-6,0.9c-6,0.7-12.1,0.2-17-0.9H60.6C67.4,222.4,89.4,224.7,103.2,222.3z"/>
</g>
<g class="st0">
	<path d="M223,361.6c2.1-5,1.9-14.3,1.2-20.5c-0.6-4.4-4.4-18.2-5.6-20.5c-0.8-1.5-0.6,1.9-0.2,6.6c0.5,5.6,0.8,10.8,1,13.3
		c0.6,6.9-1.4,14.9-3.5,19.6v11.3C219,368.2,221.6,365,223,361.6z"/>
	<path d="M232,365.5c1.7-4.7,2.5-7.8,2.4-14c-0.1-4.7-2.2-10.7-3.1-15.4c-2.2-11-6.6-22.1-13.5-31.9c-1.2-1.8-1.5,1.9,0.7,5.6
		c2.9,4.8,13,29.1,9.5,46.3c-1,5.2-2.9,12.9-6.3,15.7c-0.7,0.6-2.9,2.3-5.8,4.5v5.4c4.1-3.1,7.6-5.6,9.2-6.9
		C226.9,373.2,230.9,368.2,232,365.5z"/>
	<path d="M295,272.6c-4.2-3.6-7-4.3-15.3-3.3s-27.4,0.5-34.2-4.2c-6.8-4.8-10.1-7.4-12.8-13.3s-1.5-11.9-2.1-17.3
		c-0.2-1.6-0.8-5.2-1.3-7.8c-0.2-1-0.5-1.9-0.6-2.5c-0.8-2.5-1.8-5.2-3.3-5.4c-3.3-0.3-5.4,2.9-6.8,7.9l0,0
		c-1.5,5.7-1.9,13.7-1.6,21.2c0.4,8,3.7,14.3,5.4,18c1.4,3.2,4.6,9.9,13.3,15.1c0.4,0.2,2.2,1,3.8,1.5c7.9,2.3,23.5,3,31.3,2.3
		c4.5-0.5,12.4-1.4,10.8-2.6c-0.6-0.4-4.8,0.2-9.2-0.1c-7.8-0.5-17.8-1.7-20.7-2.2c-4.5-0.8-10.9-2.2-15.4-6.4
		c-4.5-4.2-11.2-10.1-13.1-19.4c-1.1-5.3-3.4-19.7,2.1-22c1.3-0.5,0.6,13.3,2.3,20.4c1.7,7,6.3,14.7,11.9,17.5
		c5.6,2.8,17,5.6,23.6,6.6c7.6,1.1,11.2,1.6,22.4,1.8c11.1,0.3,25.2-1.7,24.5-4.4C310,273.3,299.2,276.2,295,272.6z"/>
	<path d="M229.6,320.4c2.1,6.9,2.8,9.9,4.3,15.8s2.7,15,3.5,14.1c-0.1-2.5,0.6-5,1.4-6.8c0.1-0.2,0.4-0.9,0.8-1.7
		c0.5-1.1,10.5-19.9,27.1-26.9c19.8-8.3,49.7-11.7,53.8-12.2c7.6-0.9,21.4-17.4,29.4-24c3.3-2.8,12.2-8.3,16.9-13.4
		c4.8-5.2,3.5-12,2.2-11.6c0,0-0.7,1-1.8,2.5c-1.9,2.2-5.6,5.6-11.8,8.5c-8.6,2.9-14.7,1.1-28,8c-12.9,6.7-51.6,15-65.9,15.6
		c-0.7,0-1.2,0.1-1.4,0.1c-5.6,0-13.2-1-20.5-3.5l0,0c-1.2-0.4-2.3-0.8-3.4-1.3c-2.9-1.5-7.1-5.8-7.4-5.3c-0.3,0.5,2.7,6,7.8,8.7
		c0.8,0.5,1.8,1.1,3,1.6l0,0c3.2,1.5,7.1,3,8.3,3.3c4.6,1.3,10.7,1.6,12,1.6c4.1,0.1,31.4-4.3,38.6-3.9c5.3,0.3,15.4-0.7,23.5-3.7
		c11.2-4.2,20.2-10.9,22.4-11.5c0,1.1-12.3,15.8-23.2,19.5c-11,3.6-24.5,2.9-41.3,7c-5.4,1.3-11.8,5.7-16.1,8.1
		c-8.5,4.7-14.9,8.8-18.4,12.5c-2.1,2.2-4.1,5.4-5.7,7.7c-1.1,1.5-2.1,2.6-2.8,2.6c-1.5-0.1-0.7-12.8-5.9-21.1
		c-4.5-7.2-11-15.6-15.1-20.4v7.1c3.1,3.5,5.8,6.9,6.6,7.8C223.5,306.6,227.5,313.5,229.6,320.4z"/>
	<path d="M239.6,302.6L239.6,302.6c1.7,1.5,3.4,2.4,4.6,2.8c5,1.8,17.8,0.6,24.7-4.4c8.7-5.3,30.8-5.7,30.4-7.1s-15.2-1.7-22.1-0.8
		c-9.9,1.4-18.6,7.2-30.9,4.2c-1.2-0.3-2.5-0.8-3.7-1.6c-0.6-0.4-1.9-1.3-3.1-2.4l0,0c-1-0.8-1.9-1.8-2.5-2.2
		c-8.3-4.7-18-18.1-21.2-25.6v10.6c5.3,7.9,16.4,17.7,20.5,22.8C237.2,300.2,238.4,301.5,239.6,302.6z"/>
	<path d="M227.8,299.9c10.6,10.5,9.2,21.3,11.1,21.4c0.2,0,0.4-0.1,0.7-0.2l0,0c2.2-1,4.6-5.5,7.4-7.5c2.8-2,15.2-5.5,14.2-6.2
		s-14.5,2.8-18.3,1.8c-0.8-0.2-1.9-0.9-3.3-2.2l0,0c-0.7-0.7-1.4-1.5-2.2-2.5c-1.2-1.7-2.7-3.7-4.6-6c-2.7-3.2-11.3-11.4-16.9-18.3
		v6.5C219.2,290.8,223.5,295.7,227.8,299.9z"/>
	<path d="M220.1,217.9c0.2-0.1,0.3-0.3,0.5-0.4h-4.7v4.8C216.8,221,218.1,219.6,220.1,217.9z"/>
	<path d="M258.4,228.8c3.8,2.3,6.5,4.1,13.4,7.4c8.1,3.8,15.8,4.8,16.9,4.3c0.4-1.2-6.7-5.2-16.6-9.7s-14.5-10.3-14.9-10.6
		c-0.3-0.3-1-1.2-1.9-2.6h-10.1c0.8,0.8,1.6,1.8,2.6,2.9C250,222.8,254.5,226.6,258.4,228.8z"/>
	<path d="M419.2,275.3c-0.6-0.2-0.3,2.8,0.1,4.7c3.4,17.8-1.4,28-2.9,32.2c-0.8,2.4-5.1,11.5-9.5,20.1c-2.5,4.9-4.4,7.9-6.1,10.1
		c-1.3-1.9,0.4-7.8,1.5-10.4c2.7-6.3,8.3-16.3,11.8-25.4c4.5-11.5,5.1-21.5,3.3-20.1c-1.8,1.3-2.4,7.5-5.4,14.4
		c-3.4,8.1-9,17.4-11.2,21.2c-6.4,10.8-6.3,23.1-5.7,25.6c0.4,1.6,2.4,1.5,3,0.6c3.4-2.3,8.8-8.3,12.9-14.8
		c2.3-3.7,10.8-20.7,12.1-30.8c0.6-5,2.3-12.8-1.3-22.5C421.1,278.8,419.8,275.5,419.2,275.3z"/>
	<path d="M436.4,423c-7.7,4-18.1,9.6-23,14.6c-0.1,0.1-0.2,0.2-0.3,0.3h10.5c4-3.4,8.4-6.4,12.8-9V423z"/>
	<path d="M424.3,400.1c-4.4,4.7-6.4,9.1-7.2,12.8c-0.8,3.7-5.1,18.3-3.6,18.6c1.3,0.2,14.4-12.9,22.9-19v-6.8
		c-4.7,2.8-7.6,5.7-10.9,9.6c-2.1,2.5-4.2,3.1-4.2,2.7c0.3-2.9,0.9-5.5,2-8c0.9-1.7,1.9-3.4,3-5.1c2.5-3.3,3-4.2,6.9-6.6
		c1-0.6,3-1.8,3.1-1.9v-6.6C432.7,392.5,428.4,395.8,424.3,400.1z"/>
	<path d="M436.4,433.7c-0.4,0.3-0.8,0.6-1.2,0.8c-1.5,1.1-3,2.2-4.4,3.3h5.6V433.7z"/>
	<path d="M434.7,244.5c-0.7-3.8-3.2-5.4-4.1-5.1c-6.1,2.6-7.1,19.3-7.3,26c-0.4,11.8,3,20.8,6.7,24.8c1.8,2,4.3,4.7,6.5,7.3v-7.1
		c-1.6-1.9-2.8-3.3-3.4-3.8c-3.2-2.9-4.9-7.3-4-8.1c0.3-0.3,3.3,3.4,7.4,8.3v-6.6c-0.9-1.1-1.6-2.1-2.3-3.1
		c-9.7-13.9-7.6-16.1-6.3-22.2s5-8.2,4.7-4.7c-1.3,12.1-1.6,13.7,1.7,22c0.5,1.3,1.3,2.7,2.3,4.1v-10.7c-0.7-1.5-1-2.8-1.1-3.7
		C434.9,256.3,435.3,248,434.7,244.5z"/>
	<path d="M339.3,303.3c1.9-3.4,20.7-25,19.3-26.1c-1.3-1.2-21.4,17.3-24.6,20.8c-5.8,6.3-8,17-6.6,21.3c2.8,9.2,4.9,18.8,10.7,30.1
		c1.2,2.3,7,9.6,7.3,9c0.3-0.7-4.8-10.4-7-20.5C336.9,330.3,331.8,317.1,339.3,303.3z"/>
	<path d="M385.3,226.7L385.3,226.7c10,11.2,9.9,21.8,10,22.2c1,4.4,0.4,20-4.4,26.7s-15.2,15.1-19.1,20.8c-5.4,7.9-5.5,12-5.8,25.3
		s0.5,22.1,3.3,28.1s6.8,10.6,8.1,11.5c1.2,1,6.6,7.2,1.7-2c-4.4-8.4-8.9-6.1-6.9-27.5s-0.5-11.8,2.4-23.5
		c2.9-11.6,14.9-23.3,16-24.5c4.8-5.8,8.3-10.3,9.1-18.1c0.9-7.8-0.1-13.9-2.2-23.6c-1.5-7.1-4.9-13.9-5.7-15.6
		c-1-2-4.8-5.7-8.4-9.2h-8.8C379,220.5,382.6,223.6,385.3,226.7z"/>
	<path d="M368.6,414.9c-1.6-4.2-3.8-9.9-4.9-8.7c-1,1.3,0.4,7.2,1.5,11c2.6,8.1-1.6,14.6,3.4,17.2c2.1,1.1,4.1,2.3,5.8,3.4h8.8
		c-3.3-3.1-6.6-5.9-7.6-6.9C371.8,427.5,370.9,421.2,368.6,414.9z"/>
	<path d="M350.7,437c-3.3-5.1-21.5-1.3-33.5,0.8h34.2C351,437.5,350.8,437.3,350.7,437z"/>
	<path d="M278.3,424.3c-6-7.2-11.2-13.2-14.8-19.2c-0.3-0.6-4.6-10.1-7.9-17.5c-1.6-4.7-2.9-9.3-2.6-12.6c0.6-9.2-0.2-18.4-0.3-22.9
		c-0.2-5.5,4.8-19.7,7-21.2c5.6-3.8,13.5-4.4,21.6-3.5s21.7,3.7,26.6,7.9c5,4.3,8.5,7.4,12.6,14.8c-2.5-2.3-11.2-9.5-16.2-12
		c-4.9-2.5-24.5-4.6-25.9-5c-6.5-1.8-8.8-2.3-14.1-0.3c-5.3,2-6.4,6.8-6.7,10.8c-0.3,4-1.7,28.9,0.8,38c2.6,9.1,11,24.2,20.9,36.9
		c7.1,9.1,13.3,11.8,15.3,10.2c-5-5.6-10.6-9.2-11.5-17.8c-0.5-5.1-12.4-15.6-16.4-30.5c-3.4-12.9-3.9-26.5-3.8-27.8
		c0.8-7.5,2.6-11.7,6-12.9c3.4-1.2,30-0.1,34.5,2.7c7.5,4.6,19.3,14,21.8,18.5c3.7,6.7,6.5,25.6,6.6,25.9c0.4,2.5,6,17.3,3.7,25.3
		c-1.6,5.8-7.3,6.1-13.1,7.2c-3.1,0.6-3.1,2.2-8,1.9c-4.9-0.2-11.9-7.8-18.2-15.7c-10.7-13.3-20-31.5-19.2-39.8
		c0.9-9.4,0.4-9-0.3-14.4c-0.4-2.9,4.7-2,9.5-0.9s11.6,3.3,16.2,5.1c12.5,4.8,22.2,31.8,22.9,36.7c0.8,4.9-0.2,13.1-1.8,16.2
		c-1.6,3.1-3.4,5-4.8,4.8s-1.3-0.7-2.3-1.9c-4.6-5.3-9.4-12.5-12.4-17.4c-3-5-6.6-7.3-10.7-13.8s-4.4-15-5.1-17.5
		c-0.2-0.7-0.4-2.4,0.4-2.8c0.7-0.4,8.3,3.4,10,4.9s2.2,2,3.5,3.3c6.8,8.3,11.2,21.8,10.6,24.8s-6.7-8.2-7.1-9.7
		c-0.6-2.8-8-12.9-9.9-16.2c-1.8-3.3-2.5,2.5-0.5,8.1c2.1,5.7,18.9,28.9,20.3,27.7c1.3-1.2,3.8-9,2.4-14.5
		c-1.9-7.8-3.8-17.6-21.4-30.3c-5.2-3.7-7.8-4.3-9-4s-7.1-1.6-3.6,7.5c1.7,6.7-0.3,16.9,2.8,21.5c1.9,5.5,6.5,9.8,10.2,13.2
		c5,4.5,13.2,14.7,13.9,15.5c1.8,2.3,3.9,5.8,7.3,5.7c4.2-0.2,7.3-1.6,10.1-5.4c2.7-3.7-0.4-26.3-0.7-27.7c-0.4-2.2-1-4.2-1.5-5.8
		c-1.1-4.5-2.6-8.7-4.8-11.5c-7.6-10-15.1-16.6-26.4-20.1s-25.1-3.6-26.1-2.3c-0.7,1-1.1,22.6,0,27.1c3.6,14.7,20.2,39,27.9,47.6
		c5.5,6.1,12.4,6.1,17.1,6s8.9-1.5,13.5-2s12.9-2.7,13.9-5.9c0.6-1.9-1.4-7.2-1.3-9.5c0.4-8-0.9-15.7-1.8-21.8c0,0-1.7-5.8-2.1-7.2
		c-2.8-12.4-8.3-26.5-10.5-30.8c-0.9-1.8-11.3-22.7-16.7-25.3c-7.7-3.7-45.1-3.6-50.8,1.3c-4.2,3.5-8.4,26.7-9.7,31.8
		c-2.3,8.8-5.6,28.2-4.1,31.7c0.4,0.9,4.9,1.9,9,8.6c2.1,4.6,5.7,13.1,10.8,21.6c2.7,5.1,5.5,9.9,7.6,12.6c3.7,4.9,6.6,5.6,8.8,7.3
		c0.1,0.1,0.2,0.1,0.3,0.2h13.3c-3.7-0.8-6.8-1.9-8.6-3C281.8,432.6,281,427.5,278.3,424.3z"/>
	<path d="M347.1,412.1c2.2,6.1,3.6,12,2.8,14.3c-0.8,2.3-10.7-1.2-17-0.8c-3.5,0.3-10.7,0.4-17.5,2.6c-8.9,2.8-18,2.5-17.4,4
		c1.1,2.6,37.3-3.7,52.1,0c14.8,3.7,0.8-16.7-0.3-25.9c-1-9.3-7.6-25.4-8.4-24.7c-0.8,0.7-0.9,4.4,0.2,8.8
		C342.9,394.6,345,406,347.1,412.1z"/>
	<path d="M238,384.3c0.6-1.3,1.2-3.4,1.6-5.5c0,0,0.9-9.4,1.1-14.1s5.6-18.9,6.4-21c0.6-1.6,1.5-6.2,0.7-6.3s-3.1,4.2-4,6.6
		c-1.6,4.9-5.1,10.5-6.6,15.5s-5.8,17.2-8.1,19.5c-3,3.1-3.7,3.8-8.3,7.1c-1.5,1.1-3.3,2.4-5.2,3.7v6.6c5.7-2.8,12.7-5.4,15-5.6
		C233.3,390.5,236.3,388,238,384.3z"/>
	<path d="M265,429.6c-8.2-14-19.5-32.1-22.3-33.3c-2.6-1.1-5.3,0.1-6.9,0.7c-9.4,3.3-15.5,5.9-20,8.6v6.8c1.5-1.1,2.9-1.9,4.1-2.5
		c7.6-3.5,16.9-7.8,16.9-6.4c0.1,3.3-7.9,12.4-14.8,16.1c-1.6,0.9-3.8,2-6.2,3.2v5.9c2.9-1.7,5.8-3.3,8.6-4.7
		c5.3-2.7,9.3-3.8,12.3-5.7s2.6-4.8,6.9-7.6c4.4-2.8,12.5,20.4,13.6,22.2c1,1.7,2.5,3.2,4.2,4.7h11.1
		C269,434.7,266.2,431.7,265,429.6z"/>
	<path d="M239.6,424.2c-0.1,0-0.1,0-0.2,0c-6.7,1.1-14.3,3.3-23.7,9.5v4.1h4.7c6.8-5.6,14.3-4.6,19.1-3c2.6,0.9,4.4,2,4.8,2.3
		c0.3,0.2,0.5,0.5,0.8,0.7h10.1C251.9,433.1,245,423.6,239.6,424.2z"/>
	<path d="M409.9,423.9c-0.6-7.5-0.3-13.6,4.2-21.5c3.5-6.1,14.2-14.6,22.4-20.7v-5.4c-7.5,5.7-19.6,14.7-21.9,16
		c-3.2,1.8-14.3,9.2-13,14.1c1.4,4.9,1.7,6.6,2.6,9.1c0.9,2.6-0.2,16.6-1.1,19c-1.2,3.4-2.2-9.1-3.2-13.2
		c-2.3-9.3-5.3-11.7-8.5-15.8c-1.2-1.6,1-3.1,1.8-4c5.9-6.3,18-11.7,27.6-18c5.5-3.6,11.2-7.7,15.6-12v-11.3c-2.1,4.7-5,8-7.6,9.6
		c-4.5,2.8-9.7,6.1-18.6,11s-17.3,10.3-19.2,11.7c-6.6,4.7-10.3,12.1-10.4,14.5c-0.5,6.5,10.5,8.6,15.9,22.5
		c0.5,1.3,0.9,5.1,0.9,8.5h9.4C408.5,432.2,410.1,426.9,409.9,423.9z"/>
	<path d="M379.1,415.7c-3.5-5.3-6.7-15.2-9-20c-2.8-5.9-4.3-12.9-7.5-16.2c-3.3-3.3-7.3-7.1-9.7-13.3c-1.8-4.8-2.9-1.9-2.2,2.7
		c0.8,4.5,5.1,10.8,9.1,17.5c1,1.7,1.8,9.5,4.6,14.8c1.7,3.2,10.6,20.8,17.2,29.1c1.9,2.4,4,5.1,6,7.7h6.8
		c-1.3-3.5-3.2-8.1-5.3-11.7C385.6,420.5,381.2,418.8,379.1,415.7z"/>
	<path d="M361.6,414.4c-0.4-5.3-0.5-11.5-1.2-15.4c-1.2-6.5-7.1-18-12.7-24.9c-1.2-1.5-5.7-7-9.3-12.9c-3.1-5.3-5.5-10.8-7.5-17.5
		c-2-6.8-9.1-26.5-11.8-31.1c-3.6-6.2-21.2-0.7-26.5,0.2c-5.3,0.9-19.1,3.2-18.9,4.3c0.1,0.6,16.2-0.9,18.7-0.7
		c6.5,0.4,19.1-2.1,21.6,0.2c2.4,2.3,3.8,7.5,7.2,14.1c2.9,5.7,4.5,9.4,7,15.3c2.4,5.8,9.8,23.7,11.3,25.5
		c0.4,0.4,7.6,13.2,11.5,23.2c1.8,4.5,3.2,8.9,4.4,12.9c1,3.6,3.8,10.9,4.5,17.6c0.5,5.3-0.6,9.9-0.3,12.8h7.5
		c-0.5-0.5-0.9-1.1-1.2-1.7C362.6,430.3,362,419.7,361.6,414.4z"/>
	<path d="M279.3,229c5.3,3.1,14.9,8.1,20.7,9c15,2.3,29.5-1.9,33.7-0.1c4.3,1.9,11.9,12.3,19,13.6c-2.8,2-10-0.2-17.4-5.3
		s-21.4-0.3-30.6,0.3c-9.2,0.5-27.5-1.5-37.3-4.4c-3-0.9-8.8-3.7-13.1-6.8c-5.3-3.6-12.9-11.9-14.7-12.9c-3.8-1.9-7.9-3.5-8.3-2
		s2.7,2.8,6.7,6.3c0.5,0.5,1.1,0.9,1.6,1.4c5.5,4.6,6.7,10.8,18.6,17.4c11.9,6.6,42.4,11.6,53.2,8.5c10.8-3.1,41.2,1.5,41.3,2.6
		c-1.5,0.5-16.6,5.5-31,6c-12.6,0.5-24.7-3.3-26.6-4.6c-2.7-1.9-22.2-1.1-29.3-0.8c-4.1,0.2-8.2-3.3-17.2-7.9
		c-1.5-0.8-4.7-2.5-7.3-5.2l0,0c-2.5-2.8-6-10.7-6.6-9.8c-0.6,3,1,8.7,4,12.7c0.3,0.6,2.1,2.7,2.7,3.2l0,0
		c3.1,2.7,14.1,15.7,24.6,15.6c5.7-0.1,25.2-1.8,28.8,0.2c7.4,4.2,17.9,3.5,18.1,3.5c13.2-2.4,35.7-8.1,39.1-9
		c6-1.5,8.9-2.9,11.6-6.2c0.9-1.1-6.7-7.2-7.9-7.9c-1.2-0.7-8-2.4-10.7-5.8c-4.8-6-0.9-9.7-10.8-9.5c-6.5,0.1-19,2.1-31.8-0.3
		c-1.2-0.2-16.2-3.5-16.8-3.9c-4.5-2.5-9.1-5.9-12.9-9.2h-11.2c2.4,2,5.2,3.8,7.9,5.3C271.8,224.3,277.3,227.8,279.3,229z"/>
	<path d="M396.3,228.8c1.9,2.3,2.8,9.5,4.2,9c1.4-0.5,3.7-13.5,4.2-14.7c0.7-1.8,1.3-3.7,1.9-5.6h-9.4c0,2.6-0.3,4.9-0.9,5.4
		c-0.2,0.1-0.9-2.2-2.1-5.4h-6.8c0.9,1.2,1.8,2.4,2.6,3.5C392.7,224.3,394.3,226.6,396.3,228.8z"/>
	<path d="M371.3,226.7L371.3,226.7c0.9,0.5,1.8,0.9,2.7,1.3c1.6,0.8,5.6,1.6,9,5c0.7,0.8,4.7,8.2,5.1,8.3c1.4,0.2-0.1-7.4-6.9-14.6
		l0,0c-3.8-2.8-8.5-5-10.3-6.1c-1.2-0.7-2.7-1.8-3.9-3.1h-7.5c0.1,0.9,0.3,1.6,0.8,2.1C362.2,221.7,367.2,224.6,371.3,226.7z"/>
	<path d="M402.3,254.8c-0.2,7.3,0.8,13.3-1.3,20.5c-1.6,5.3-5.5,12.6-7.9,14.9c-5.4,5.6-14.6,11.7-15.1,29.1s0.3,30.1,2.8,36
		c0.4,0.9,2.1,2.5,2.3,1.3c0.4-2.2-0.7-8.7-0.8-10.9c-0.3-11-1-14.3,2.3-29.4c1.3-6.1,3.6-7.9,7-14c5-9.1,9.6-14.9,11.6-17.7
		c5.8-8.6,4.2-17.1,4.2-21.3c0-5.6,0.5-15.2,2.5-23.7c1.1-4.6,3.2-9.8,5.1-12.8c1.9-2.9,3.1-3.9,4.9-5.8c1.2-1.2,2.4-2.3,3.6-3.4
		H413c-2,2.3-4,5.4-5.5,9.1C404.4,234,402.5,243.7,402.3,254.8z"/>
	<path d="M421.3,226.7c-1.7,2-2.7,3.4-2.9,3.8c-4.4,8.8-6.3,27.4-5.8,35.5c0.2,4,2.2,15-7.6,25c-8.8,9-13.9,16-16.4,32
		c-0.6,3.8-1.1,22-0.6,29.2c0.3,3.6,0.8,4.9,1.2,5.5c1.7,2.3,6.7-0.5,14.7-4.8c10.5-5.5,15.3-11.2,20.1-27.7
		c0.4-1.3,4.6-17.7,4.9-19.4c0.3,3.6-0.6,22.7-1.5,26.2c-4.2,14.8-14.2,20.6-19.6,24.8c-6.3,4.9-19.4,9.4-28.6,9
		c-2.4-0.1-5.8-1.9-10.2-8.1c-1.5-2.1-4.9-12-4.7-18.1c0.2-6.3-1.2-23.4-2.4-22.4s-7.9,11.3-9.9,18.5c-3.1,8.7-0.2,21.9,4.4,29.5
		s10.9,9.9,12,16.5c1,6.6,9.4,16.4,10,15.4c0.1-0.1,0.2-0.2,0.3-0.3c2.9-3.3,13.3-13.6,21.1-17.8c7.9-4.3,26.3-11,30.6-15.6
		c2.6-2.7,2.7-7.2,3.1-11.6c0.3-3,1.6-7.4,0.3-6.2c-1.3,1.2-4.1,12.2-10.3,14.7c-6.2,2.5-21,12.8-35.4,16.7c-4.2,1.1-7.5,6.1-11.2,9
		c-1.6,2.4-6-15.7-10.6-18.4c-4.7-2.8-13.1-17.1-9.9-26.1c0.7-1.9,3.2-7.3,4.4-9.3c0.1,1.8-0.5,15.6,0.8,19.9
		c3.1,10.3,10.1,14.2,11.5,16.6c1.2,1.9,4.1,10.2,5.5,8.6c3.2-3.6,9.4-6.4,16.4-8.2c7-1.8,15-6.7,21.9-10.6
		c6.9-4,12.5-9.6,15.3-18.7c2.9-9.1,2.9-18.3,1.9-27.3c-1.5-15.4-5.4-19.7-6.2-18.4c-0.8,1.2-0.7,9.4-2.7,13.7
		c-0.5,1.1-8,22.6-10.7,28.5c-3.1,6.6-12.1,13.4-17.1,15.3c-4.7,1.8-5.7-3.5-5.8-6.4c-0.4-8.3,1.6-26.6,6.9-33.5s5.6-6.4,9.5-13.1
		c3.8-6.4,7.8-19,9-25.9c1.6-8.9-1.5-29.6,11-38c5.1-3.4,5.1-5.3,6-7.9c0.4-1.2,1-2.6,2.4-4.4v-4.9h-5.6
		C426.7,220.8,423.5,224.2,421.3,226.7z"/>
	<path d="M323.4,222.3c6.1-1.1,17.5-0.5,22.1,4.4c0.4,0.4,0.7,0.8,0.9,1.3c5.5,12.5,12,13,16.6,15.6c4.7,2.7,10.7,8.4,11.8,13.9
		c1.1,5.5-1.2,6.1-2.2,8.7c-0.6,1.6-27.5,34.4-28.4,36.8c-2.2,5.5-2.3,5.6-3.5,11.5c-2.6,12.7,6,32.3,6.9,31.9s-1.6-10.8-1.4-19
		c0.2-5.8,2.3-10.1,2.7-15.2c0.4-5.1,8.5-21,17.4-30.2c2.7-2.8,16.8-16.7,13.5-28.4c-4-13.8-20.6-19.3-21.4-22.6
		c1.1,0.6,2.4,1.3,3.6,2c1.6,0.9,3.2,1.8,4.7,2.3c2.6,0.7,15.5,7.8,17.5,16.3c2.1,8.8-3.3,19.1-4,20.4c-0.8,1.4-1.6,2.7-2.4,3.6l0,0
		c-2.9,3.3-14.8,16.8-19.6,24.8s-4.2,15.9-4.7,22.8c-0.2,2.4,4-8,7.4-15.4c2.1-4.5,3.7-6.4,4.5-7.8c0.5-0.7,0.9-1.5,1.3-2.3
		c6.8-11.5,13.3-17,17.5-20.6c2.5-1.8,7.5-7.8,7.2-19.1c-0.1-2.2-2.3-13-10.4-20c-0.3-0.2-9-4.7-17.1-10.2
		c-5.5-3.7-10.6-8.1-12.5-10h-34.2c-2.3,0.4-4.3,0.7-6,0.9c-6,0.7-12.1,0.2-17-0.9h-13.3C287.7,222.4,309.6,224.7,323.4,222.3z"/>
</g>
</svg>
